<svg xmlns="http://www.w3.org/2000/svg" xmlns:xlink="http://www.w3.org/1999/xlink" viewBox="0 0 1200 300"><defs><style>.cls-1,.cls-3{mask:url(#mask);}.cls-1{filter:url(#luminosity-noclip-3);}.cls-10,.cls-2,.cls-4{mix-blend-mode:multiply;}.cls-2{fill:url(#linear-gradient);}.cls-3{filter:url(#luminosity-noclip-4);}.cls-4{fill:url(#linear-gradient-2);}.cls-5{fill:none;}.cls-6,.cls-68{isolation:isolate;}.cls-7{clip-path:url(#clip-path);}.cls-8{fill:#2f3459;}.cls-9{fill:url(#linear-gradient-3);}.cls-10{fill:#f6c491;opacity:0.2;}.cls-10,.cls-131{fill-rule:evenodd;}.cls-11{fill:#d78a60;}.cls-12{fill:#ffd48f;}.cls-13{fill:#ea9d67;}.cls-14{fill:url(#linear-gradient-4);}.cls-15{fill:url(#linear-gradient-5);}.cls-16{mask:url(#mask-3);}.cls-17,.cls-19{mix-blend-mode:overlay;}.cls-143,.cls-144,.cls-145,.cls-146,.cls-147,.cls-156,.cls-157,.cls-17,.cls-19,.cls-69{opacity:0.5;}.cls-17{fill:url(#linear-gradient-6);}.cls-18{mask:url(#mask-4);}.cls-19{fill:url(#linear-gradient-7);}.cls-20{fill:url(#linear-gradient-8);}.cls-21{fill:#f1a45c;}.cls-22{fill:url(#linear-gradient-9);}.cls-23{fill:url(#linear-gradient-10);}.cls-24{fill:url(#linear-gradient-11);}.cls-25{fill:url(#linear-gradient-12);}.cls-26{fill:url(#linear-gradient-13);}.cls-27{fill:url(#linear-gradient-14);}.cls-28{fill:url(#linear-gradient-15);}.cls-29{fill:url(#linear-gradient-16);}.cls-30{fill:url(#linear-gradient-17);}.cls-131,.cls-31{fill:#c66544;}.cls-32{fill:#a65539;}.cls-33{fill:url(#linear-gradient-18);}.cls-34{fill:url(#Naamloos_verloop_4);}.cls-35{fill:url(#Naamloos_verloop_15);}.cls-36{fill:url(#Naamloos_verloop_6);}.cls-37{opacity:0.24;}.cls-38{fill:url(#Naamloos_verloop_5);}.cls-39{fill:url(#Naamloos_verloop_10);}.cls-40{fill:url(#Naamloos_verloop_6-2);}.cls-41{fill:url(#Naamloos_verloop_6-3);}.cls-42{fill:#e27f60;}.cls-43{fill:url(#Naamloos_verloop_6-4);}.cls-44{fill:url(#Naamloos_verloop_6-5);}.cls-45{fill:#474747;}.cls-46{fill:url(#Naamloos_verloop_20);}.cls-47{fill:url(#Naamloos_verloop_70);}.cls-48{fill:url(#Naamloos_verloop_23);}.cls-49{fill:url(#Naamloos_verloop_30);}.cls-50{fill:url(#Naamloos_verloop_50);}.cls-51{fill:url(#Naamloos_verloop_23-2);}.cls-52{fill:url(#Naamloos_verloop_11);}.cls-53{fill:url(#Naamloos_verloop_23-3);}.cls-54{fill:url(#Naamloos_verloop_23-4);}.cls-55{fill:url(#Naamloos_verloop_11-2);}.cls-56{fill:url(#Naamloos_verloop_11-3);}.cls-57{fill:url(#Naamloos_verloop_11-4);}.cls-58{fill:url(#Naamloos_verloop_11-5);}.cls-59{fill:url(#Naamloos_verloop_16);}.cls-60{fill:url(#Naamloos_verloop_23-5);}.cls-61{fill:url(#Naamloos_verloop_20-2);}.cls-62{fill:url(#Naamloos_verloop_23-6);}.cls-63{fill:url(#Naamloos_verloop_11-6);}.cls-64{fill:url(#Naamloos_verloop_23-7);}.cls-65{fill:url(#Naamloos_verloop_49);}.cls-66{fill:url(#Naamloos_verloop_40);}.cls-67{fill:url(#Naamloos_verloop_44);}.cls-68{opacity:0.35;fill:url(#Naamloos_verloop_25);}.cls-69{fill:url(#Naamloos_verloop_28);}.cls-70{fill:url(#Naamloos_verloop_50-2);}.cls-71{fill:url(#Naamloos_verloop_26);}.cls-72{fill:url(#Naamloos_verloop_39);}.cls-73{fill:url(#Naamloos_verloop_22);}.cls-74{fill:url(#Naamloos_verloop_33);}.cls-75{fill:url(#Naamloos_verloop_33-2);}.cls-76{fill:url(#Naamloos_verloop_40-2);}.cls-77{fill:url(#Naamloos_verloop_41);}.cls-78{fill:url(#Naamloos_verloop_40-3);}.cls-79{fill:url(#Naamloos_verloop_39-2);}.cls-80{fill:url(#Naamloos_verloop_40-4);}.cls-81{opacity:0.46;}.cls-82{fill:#fff;}.cls-83{fill:url(#Naamloos_verloop_23-8);}.cls-84{fill:#0b4a7c;}.cls-85{fill:#0071bc;}.cls-86{fill:#5ca4d4;}.cls-87{fill:#338dc9;}.cls-88{fill:url(#Naamloos_verloop_34);}.cls-89{fill:url(#Naamloos_verloop_34-2);}.cls-90{fill:url(#Naamloos_verloop_34-3);}.cls-91{fill:#ffd600;}.cls-92{fill:#ffe474;}.cls-93{fill:#c1272d;}.cls-94{fill:#911d22;}.cls-95{fill:#99c6e4;}.cls-96{fill:#d6e8f4;}.cls-97{fill:#cd5257;}.cls-98{fill:url(#Naamloos_verloop_3);}.cls-99{fill:url(#Naamloos_verloop_3-2);}.cls-100{fill:url(#Naamloos_verloop_3-3);}.cls-101{fill:url(#Naamloos_verloop_3-4);}.cls-102{fill:url(#Naamloos_verloop_3-5);}.cls-103{fill:url(#Naamloos_verloop_3-6);}.cls-104{fill:url(#Naamloos_verloop_3-7);}.cls-105{fill:url(#Naamloos_verloop_3-8);}.cls-106{fill:url(#Naamloos_verloop_3-9);}.cls-107{fill:url(#Naamloos_verloop_3-10);}.cls-108{fill:url(#Naamloos_verloop_3-11);}.cls-109{fill:url(#Naamloos_verloop_3-12);}.cls-110{fill:url(#Naamloos_verloop_3-13);}.cls-111{fill:url(#Naamloos_verloop_34-4);}.cls-112{fill:url(#Naamloos_verloop_34-5);}.cls-113{fill:url(#Naamloos_verloop_34-6);}.cls-114{fill:url(#Naamloos_verloop_34-7);}.cls-115{fill:url(#Naamloos_verloop_34-8);}.cls-116{fill:url(#Naamloos_verloop_34-9);}.cls-117{fill:url(#Naamloos_verloop_34-10);}.cls-118{fill:url(#Naamloos_verloop_34-11);}.cls-119{fill:url(#Naamloos_verloop_34-12);}.cls-120{fill:url(#Naamloos_verloop_34-13);}.cls-121{fill:url(#Naamloos_verloop_3-14);}.cls-122{fill:url(#Naamloos_verloop_3-15);}.cls-123{fill:url(#Naamloos_verloop_34-14);}.cls-124{fill:url(#Naamloos_verloop_34-15);}.cls-125{fill:url(#Naamloos_verloop_3-16);}.cls-126{fill:url(#Naamloos_verloop_3-17);}.cls-127{fill:url(#Naamloos_verloop_34-16);}.cls-128{fill:url(#Naamloos_verloop_34-17);}.cls-129{fill:url(#Naamloos_verloop_34-18);}.cls-130{fill:url(#Naamloos_verloop_34-19);}.cls-132{fill:url(#Naamloos_verloop_31);}.cls-133{fill:url(#Naamloos_verloop_24);}.cls-134{fill:url(#Naamloos_verloop_24-2);}.cls-135{fill:url(#Naamloos_verloop_58);}.cls-136{fill:url(#Naamloos_verloop_36);}.cls-137{fill:url(#Naamloos_verloop_58-2);}.cls-138{fill:url(#Naamloos_verloop_36-2);}.cls-139{fill:url(#Naamloos_verloop_24-3);}.cls-140{fill:url(#Naamloos_verloop_24-4);}.cls-141{fill:url(#Naamloos_verloop_36-3);}.cls-142{fill:url(#linear-gradient-19);}.cls-143{fill:url(#Naamloos_verloop_8);}.cls-144{fill:url(#Naamloos_verloop_8-2);}.cls-145{fill:url(#Naamloos_verloop_8-3);}.cls-146{fill:url(#Naamloos_verloop_8-4);}.cls-147{fill:url(#Naamloos_verloop_8-5);}.cls-148{fill:url(#Naamloos_verloop_36-4);}.cls-149{fill:url(#linear-gradient-20);}.cls-150{fill:url(#Naamloos_verloop_36-5);}.cls-151{fill:url(#linear-gradient-21);}.cls-152{fill:url(#Naamloos_verloop_54);}.cls-153{fill:url(#Naamloos_verloop_58-3);}.cls-154{fill:url(#Naamloos_verloop_36-6);}.cls-155{fill:url(#Naamloos_verloop_36-7);}.cls-156{fill:url(#Naamloos_verloop_8-6);}.cls-157{fill:url(#Naamloos_verloop_8-7);}.cls-158{filter:url(#luminosity-noclip);}</style><filter id="luminosity-noclip" x="527.02" y="-8342" width="776.59" height="32766" filterUnits="userSpaceOnUse" color-interpolation-filters="sRGB"><feFlood flood-color="#fff" result="bg"/><feBlend in="SourceGraphic" in2="bg"/></filter><mask id="mask" x="527.02" y="-8342" width="776.59" height="32766" maskUnits="userSpaceOnUse"><g class="cls-158"/></mask><linearGradient id="linear-gradient" x1="3866.94" y1="174.54" x2="3091.34" y2="174.54" gradientTransform="translate(-2572.2)" gradientUnits="userSpaceOnUse"><stop offset="0"/><stop offset="1" stop-color="#fff"/></linearGradient><linearGradient id="linear-gradient-2" x1="1292.77" y1="225.47" x2="516.41" y2="225.47" gradientTransform="matrix(1, 0.03, 0, 1, 3.29, -93.61)" gradientUnits="userSpaceOnUse"><stop offset="0" stop-color="#fff"/><stop offset="1"/></linearGradient><clipPath id="clip-path"><rect class="cls-5" width="1200" height="300"/></clipPath><linearGradient id="linear-gradient-3" x1="925.48" y1="207.45" x2="925.48" y2="4.69" gradientUnits="userSpaceOnUse"><stop offset="0" stop-color="#f7c594"/><stop offset="1" stop-color="#dd996a"/></linearGradient><linearGradient id="linear-gradient-4" x1="8790.57" y1="3108.96" x2="8790.57" y2="3186.68" gradientTransform="translate(9705.9 3289.5) rotate(180)" gradientUnits="userSpaceOnUse"><stop offset="0" stop-color="#dd996a"/><stop offset="1" stop-color="#cf7f5e"/></linearGradient><linearGradient id="linear-gradient-5" x1="915.31" y1="281.43" x2="915.31" y2="149.73" gradientUnits="userSpaceOnUse"><stop offset="0" stop-color="#e38859"/><stop offset="1" stop-color="#f1a45c"/></linearGradient><filter id="luminosity-noclip-3" x="527.02" y="144.4" width="776.59" height="60.28" filterUnits="userSpaceOnUse" color-interpolation-filters="sRGB"><feFlood flood-color="#fff" result="bg"/><feBlend in="SourceGraphic" in2="bg"/></filter><mask id="mask-3" x="527.02" y="144.4" width="776.59" height="60.28" maskUnits="userSpaceOnUse"><g class="cls-1"><path class="cls-2" d="M527,148.9l75.7-3.9a514.8,514.8,0,0,1,106.2,5.8l7.5,1.2a479.9,479.9,0,0,0,84.2,6l29.4-.6c113.2-2.6,129.6,18.8,251.7,21,12.2.2,57.5,1.2,69.2,2.4l69.6,6.9a273.6,273.6,0,0,0,55,.2l28.1-2.8v19.6l-116.9-11.5a1086.4,1086.4,0,0,0-123.2-4.9h0a358.7,358.7,0,0,1-53.5-3.1l-90.3-11.9a427.6,427.6,0,0,0-53.4-3.6l-150.2-.4h-.3a302.5,302.5,0,0,1-41.4-3.2C630.1,159.6,583,155,527,159.6Z"/></g></mask><linearGradient id="linear-gradient-6" x1="3866.94" y1="174.54" x2="3091.34" y2="174.54" gradientTransform="translate(-2572.2)" gradientUnits="userSpaceOnUse"><stop offset="0" stop-color="#fff"/><stop offset="1" stop-color="#fff"/></linearGradient><filter id="luminosity-noclip-4" x="527.02" y="117.63" width="776.59" height="82.32" filterUnits="userSpaceOnUse" color-interpolation-filters="sRGB"><feFlood flood-color="#fff" result="bg"/><feBlend in="SourceGraphic" in2="bg"/></filter><mask id="mask-4" x="527.02" y="117.63" width="776.59" height="82.32" maskUnits="userSpaceOnUse"><g class="cls-3"><path class="cls-4" d="M1303.6,196.8l-47.2,2.7a290.5,290.5,0,0,1-73.1-5.4l-5.5-1.1a325.9,325.9,0,0,0-65.1-6.1l-24.3.2c-102.4,1-118.5-20.6-250.5-26.5-14.5-.7-70.5-3.5-85.7-5.3l-95.8-11.2a513.9,513.9,0,0,0-83.6-3.2L527,143V117.6l177.3,21.7A1488.4,1488.4,0,0,0,859,150.5h0a429.8,429.8,0,0,1,59.1,5.3l90.4,14.6a366.2,366.2,0,0,0,48.6,4.6l121,3.2h.1a183.7,183.7,0,0,1,29.8,3.4c30.3,5.9,61.1,10.1,95.6,7Z"/></g></mask><linearGradient id="linear-gradient-7" x1="1292.77" y1="225.47" x2="516.41" y2="225.47" gradientTransform="matrix(1, 0.03, 0, 1, 3.29, -93.61)" xlink:href="#linear-gradient-6"/><linearGradient id="linear-gradient-8" x1="811.73" y1="263.09" x2="698.45" y2="263.09" gradientUnits="userSpaceOnUse"><stop offset="0" stop-color="#d48962"/><stop offset="1" stop-color="#c66544"/></linearGradient><linearGradient id="linear-gradient-9" x1="811.73" y1="257.29" x2="698.45" y2="257.29" xlink:href="#linear-gradient-8"/><linearGradient id="linear-gradient-10" x1="811.73" y1="252.86" x2="698.45" y2="252.86" xlink:href="#linear-gradient-8"/><linearGradient id="linear-gradient-11" x1="1104.85" y1="234.17" x2="945.64" y2="234.17" xlink:href="#linear-gradient-8"/><linearGradient id="linear-gradient-12" x1="1104.85" y1="226.03" x2="945.64" y2="226.03" xlink:href="#linear-gradient-8"/><linearGradient id="linear-gradient-13" x1="1104.85" y1="219.81" x2="945.64" y2="219.81" xlink:href="#linear-gradient-8"/><linearGradient id="linear-gradient-14" x1="775.33" y1="275.77" x2="646.96" y2="275.77" xlink:href="#linear-gradient-8"/><linearGradient id="linear-gradient-15" x1="778.91" y1="269.98" x2="645.26" y2="269.98" xlink:href="#linear-gradient-8"/><linearGradient id="linear-gradient-16" x1="783.78" y1="265.55" x2="643.05" y2="265.55" xlink:href="#linear-gradient-8"/><linearGradient id="linear-gradient-17" x1="663.3" y1="189.6" x2="698.46" y2="189.6" gradientUnits="userSpaceOnUse"><stop offset="0" stop-color="#e38859"/><stop offset="0.3" stop-color="#cd7854"/><stop offset="1" stop-color="#f9b270"/></linearGradient><linearGradient id="linear-gradient-18" x1="694.06" y1="198.78" x2="717.8" y2="198.78" xlink:href="#linear-gradient-17"/><linearGradient id="Naamloos_verloop_4" x1="-185.93" y1="149.47" x2="786.96" y2="149.47" gradientUnits="userSpaceOnUse"><stop offset="0" stop-color="#e38859"/><stop offset="0.79" stop-color="#e99962"/><stop offset="1" stop-color="#f1a45c" stop-opacity="0"/></linearGradient><linearGradient id="Naamloos_verloop_15" x1="985.91" y1="349.82" x2="1247.6" y2="232.33" gradientUnits="userSpaceOnUse"><stop offset="0" stop-color="#bc6150"/><stop offset="0.63" stop-color="#915149"/></linearGradient><linearGradient id="Naamloos_verloop_6" x1="1251.44" y1="107.74" x2="1313.37" y2="144.78" gradientUnits="userSpaceOnUse"><stop offset="0" stop-color="#d66d51"/><stop offset="1" stop-color="#c95650"/></linearGradient><linearGradient id="Naamloos_verloop_5" x1="1233.05" y1="98.86" x2="1323.62" y2="163.84" gradientUnits="userSpaceOnUse"><stop offset="0" stop-color="#473d36"/><stop offset="1" stop-color="#473d36" stop-opacity="0"/></linearGradient><linearGradient id="Naamloos_verloop_10" x1="1084.88" y1="183.02" x2="1383.6" y2="535.57" gradientUnits="userSpaceOnUse"><stop offset="0" stop-color="#bc6150"/><stop offset="0.22" stop-color="#d16b56"/></linearGradient><linearGradient id="Naamloos_verloop_6-2" x1="1110.3" y1="195.1" x2="1375.88" y2="508.55" xlink:href="#Naamloos_verloop_6"/><linearGradient id="Naamloos_verloop_6-3" x1="1268.54" y1="278.89" x2="1155.27" y2="278.89" xlink:href="#Naamloos_verloop_6"/><linearGradient id="Naamloos_verloop_6-4" x1="1268.54" y1="273.1" x2="1155.27" y2="273.1" xlink:href="#Naamloos_verloop_6"/><linearGradient id="Naamloos_verloop_6-5" x1="1268.54" y1="268.67" x2="1155.27" y2="268.67" xlink:href="#Naamloos_verloop_6"/><linearGradient id="Naamloos_verloop_20" x1="1153.87" y1="227.41" x2="1211.86" y2="258.13" gradientUnits="userSpaceOnUse"><stop offset="0.04" stop-color="#878787"/><stop offset="0.11" stop-color="#9a9a9a"/><stop offset="0.25" stop-color="#ccc"/><stop offset="0.29" stop-color="#dadada"/></linearGradient><linearGradient id="Naamloos_verloop_70" x1="1152.37" y1="188.44" x2="1198.77" y2="244.9" gradientUnits="userSpaceOnUse"><stop offset="0.04" stop-color="#878787"/><stop offset="0.13" stop-color="#9a9a9a"/><stop offset="0.32" stop-color="#ccc"/><stop offset="0.49" stop-color="#fefefe"/></linearGradient><linearGradient id="Naamloos_verloop_23" x1="1123.81" y1="115.82" x2="1198.9" y2="169.69" gradientUnits="userSpaceOnUse"><stop offset="0" stop-color="#c9c9c8"/><stop offset="0.22" stop-color="#f0f0ef"/><stop offset="0.34" stop-color="#fff"/><stop offset="1" stop-color="#c9c9c8"/></linearGradient><linearGradient id="Naamloos_verloop_30" x1="1205" y1="181.9" x2="1194.01" y2="242.49" gradientUnits="userSpaceOnUse"><stop offset="0" stop-color="#cfcfce"/><stop offset="0.29" stop-color="#f0f0ef"/><stop offset="0.47" stop-color="#fff"/><stop offset="0.84" stop-color="#c9c9c8"/></linearGradient><linearGradient id="Naamloos_verloop_50" x1="1128.97" y1="167.95" x2="1219.31" y2="179.75" gradientUnits="userSpaceOnUse"><stop offset="0.04" stop-color="#878787"/><stop offset="0.1" stop-color="#838383"/><stop offset="0.16" stop-color="#767676"/><stop offset="0.22" stop-color="#626261"/><stop offset="0.28" stop-color="#454544"/><stop offset="0.29" stop-color="#3c3c3b"/><stop offset="0.34" stop-color="#40403f"/><stop offset="0.38" stop-color="#4d4d4c"/><stop offset="0.43" stop-color="#626261"/><stop offset="0.47" stop-color="#7f7f7e"/><stop offset="0.52" stop-color="#a4a4a3"/><stop offset="0.55" stop-color="#c9c9c8"/><stop offset="0.74" stop-color="#878787"/></linearGradient><linearGradient id="Naamloos_verloop_23-2" x1="1073.97" y1="121.92" x2="1086.95" y2="131.23" xlink:href="#Naamloos_verloop_23"/><linearGradient id="Naamloos_verloop_11" x1="1080.93" y1="123.97" x2="1088.3" y2="128.01" gradientUnits="userSpaceOnUse"><stop offset="0" stop-color="#fff"/><stop offset="1" stop-color="#c9c9c8"/></linearGradient><linearGradient id="Naamloos_verloop_23-3" x1="1065.08" y1="129.62" x2="1139.77" y2="132.55" xlink:href="#Naamloos_verloop_23"/><linearGradient id="Naamloos_verloop_23-4" x1="1110.54" y1="101.96" x2="1137.62" y2="147.01" xlink:href="#Naamloos_verloop_23"/><linearGradient id="Naamloos_verloop_11-2" x1="1065.69" y1="118.27" x2="1082.11" y2="118.27" xlink:href="#Naamloos_verloop_11"/><linearGradient id="Naamloos_verloop_11-3" x1="1068.56" y1="132.14" x2="1076.2" y2="132.14" xlink:href="#Naamloos_verloop_11"/><linearGradient id="Naamloos_verloop_11-4" x1="1069.3" y1="121.82" x2="1076.47" y2="121.82" xlink:href="#Naamloos_verloop_11"/><linearGradient id="Naamloos_verloop_11-5" x1="1068.87" y1="125.78" x2="1073.09" y2="125.78" xlink:href="#Naamloos_verloop_11"/><radialGradient id="Naamloos_verloop_16" cx="1155.66" cy="95.08" r="19.33" gradientUnits="userSpaceOnUse"><stop offset="0.01" stop-color="#878787"/><stop offset="1" stop-color="#575756"/></radialGradient><linearGradient id="Naamloos_verloop_23-5" x1="1149.39" y1="249.05" x2="1144.12" y2="171.83" xlink:href="#Naamloos_verloop_23"/><linearGradient id="Naamloos_verloop_20-2" x1="1137.34" y1="259.17" x2="1174.43" y2="264.14" xlink:href="#Naamloos_verloop_20"/><linearGradient id="Naamloos_verloop_23-6" x1="1140.24" y1="253.41" x2="1149.23" y2="253.76" xlink:href="#Naamloos_verloop_23"/><linearGradient id="Naamloos_verloop_11-6" x1="1133.21" y1="165.63" x2="1133.75" y2="192.69" xlink:href="#Naamloos_verloop_11"/><linearGradient id="Naamloos_verloop_23-7" x1="1127.48" y1="182.49" x2="1128.7" y2="162.26" xlink:href="#Naamloos_verloop_23"/><linearGradient id="Naamloos_verloop_49" x1="1124.96" y1="176.35" x2="1125.48" y2="182.95" gradientUnits="userSpaceOnUse"><stop offset="0.01" stop-color="#3c3c3b"/><stop offset="1"/></linearGradient><radialGradient id="Naamloos_verloop_40" cx="2165.6" cy="659.58" r="1.32" gradientTransform="matrix(0, 0.68, -0.61, 0, 1530.37, -1292.9)" xlink:href="#Naamloos_verloop_49"/><linearGradient id="Naamloos_verloop_44" x1="4490.83" y1="73.41" x2="4536.02" y2="73.41" gradientTransform="matrix(-1, 0, 0, 1, 5672.43, 0)" gradientUnits="userSpaceOnUse"><stop offset="0" stop-color="#a16552"/><stop offset="0.2" stop-color="#935848"/><stop offset="0.5" stop-color="#935848"/><stop offset="0.6" stop-color="#9c604e"/><stop offset="0.73" stop-color="#a16552"/><stop offset="1" stop-color="#966444"/></linearGradient><linearGradient id="Naamloos_verloop_25" x1="4444.13" y1="-200.77" x2="4466.94" y2="-200.77" gradientTransform="matrix(-1, 0.06, 0.06, 1, 5630.08, 21.27)" gradientUnits="userSpaceOnUse"><stop offset="0" stop-color="#4e3f3f"/><stop offset="0.44" stop-color="#4e3f3f" stop-opacity="0.7"/><stop offset="0.74" stop-color="#4e3f3f" stop-opacity="0.2"/><stop offset="0.91" stop-color="#4e3f3f" stop-opacity="0"/></linearGradient><linearGradient id="Naamloos_verloop_28" x1="1125.57" y1="67.91" x2="1203.64" y2="70.32" gradientUnits="userSpaceOnUse"><stop offset="0.04" stop-color="#bbe8ef"/><stop offset="0.07" stop-color="#b5e5ee"/><stop offset="0.25" stop-color="#85d3e4"/><stop offset="0.39" stop-color="#68c7dd"/><stop offset="0.47" stop-color="#5dc3db"/><stop offset="0.55" stop-color="#5bbfd7"/><stop offset="0.64" stop-color="#55b2cb"/><stop offset="0.73" stop-color="#4b9db6"/><stop offset="0.82" stop-color="#3d809a"/><stop offset="0.89" stop-color="#30657f"/></linearGradient><linearGradient id="Naamloos_verloop_50-2" x1="1126.2" y1="94.3" x2="1267.81" y2="101.95" xlink:href="#Naamloos_verloop_50"/><linearGradient id="Naamloos_verloop_26" x1="1161.5" y1="132.29" x2="1263.22" y2="126.46" gradientUnits="userSpaceOnUse"><stop offset="0.06" stop-color="#dcdcdc"/><stop offset="0.1" stop-color="#dadada"/><stop offset="0.19" stop-color="#ededed"/><stop offset="0.46" stop-color="#f6f6f6"/></linearGradient><linearGradient id="Naamloos_verloop_39" x1="1189.83" y1="177.47" x2="1189.83" y2="123.25" gradientUnits="userSpaceOnUse"><stop offset="0.04" stop-color="#878787"/><stop offset="0.09" stop-color="#9a9a9a"/><stop offset="0.19" stop-color="#ccc"/><stop offset="0.22" stop-color="#dadada"/><stop offset="1" stop-color="#eee"/></linearGradient><linearGradient id="Naamloos_verloop_22" x1="1159.42" y1="134.56" x2="1235.18" y2="130.21" gradientUnits="userSpaceOnUse"><stop offset="0" stop-color="#9d9d9c"/><stop offset="0.02" stop-color="#aaa"/><stop offset="0.1" stop-color="#dadada"/><stop offset="0.19" stop-color="#ededed"/><stop offset="0.46" stop-color="#f6f6f6"/></linearGradient><linearGradient id="Naamloos_verloop_33" x1="1160.71" y1="93.22" x2="1207.49" y2="79.58" gradientUnits="userSpaceOnUse"><stop offset="0.04" stop-color="#878787"/><stop offset="0.09" stop-color="#9a9a9a"/><stop offset="0.19" stop-color="#ccc"/><stop offset="0.22" stop-color="#dadada"/></linearGradient><linearGradient id="Naamloos_verloop_33-2" x1="1187.43" y1="88.59" x2="1227.81" y2="76.82" xlink:href="#Naamloos_verloop_33"/><radialGradient id="Naamloos_verloop_40-2" cx="2551.11" cy="-555.9" r="1.96" gradientTransform="translate(-905.1 316.3) scale(0.81 0.41)" xlink:href="#Naamloos_verloop_49"/><linearGradient id="Naamloos_verloop_41" x1="1204.12" y1="136.24" x2="1208.13" y2="178.63" gradientTransform="matrix(1.01, 0, 0, 1, -23.98, 2.61)" gradientUnits="userSpaceOnUse"><stop offset="0" stop-color="#dadada"/><stop offset="0.27" stop-color="#878787"/><stop offset="0.35" stop-color="#9a9a9a"/><stop offset="0.53" stop-color="#ccc"/><stop offset="0.57" stop-color="#dadada"/><stop offset="1" stop-color="#eee"/></linearGradient><radialGradient id="Naamloos_verloop_40-3" cx="3162.64" cy="-306.93" r="2.52" gradientTransform="matrix(2, -0.22, 0.45, 4.12, -4980.63, 2103.76)" xlink:href="#Naamloos_verloop_49"/><linearGradient id="Naamloos_verloop_39-2" x1="1197.19" y1="161.01" x2="1190.89" y2="98.23" xlink:href="#Naamloos_verloop_39"/><radialGradient id="Naamloos_verloop_40-4" cx="2582.67" cy="-558.15" r="1.7" gradientTransform="translate(-905.5 312.9) scale(0.81 0.41)" xlink:href="#Naamloos_verloop_49"/><linearGradient id="Naamloos_verloop_23-8" x1="1112.09" y1="101.02" x2="1139.17" y2="146.07" xlink:href="#Naamloos_verloop_23"/><linearGradient id="Naamloos_verloop_34" x1="946.26" y1="1783.83" x2="945.8" y2="1782.64" gradientTransform="matrix(-0.11, -1.07, -1.1, 0.11, 3190.99, 929.3)" gradientUnits="userSpaceOnUse"><stop offset="0" stop-color="#5ca4d4" stop-opacity="0"/><stop offset="0.13" stop-color="#5ea5d5" stop-opacity="0.02"/><stop offset="0.26" stop-color="#66aad7" stop-opacity="0.06"/><stop offset="0.38" stop-color="#72b0da" stop-opacity="0.14"/><stop offset="0.51" stop-color="#84bade" stop-opacity="0.24"/><stop offset="0.63" stop-color="#9ac7e4" stop-opacity="0.38"/><stop offset="0.75" stop-color="#b6d6ec" stop-opacity="0.55"/><stop offset="0.87" stop-color="#d6e8f4" stop-opacity="0.75"/><stop offset="0.99" stop-color="#fbfdfe" stop-opacity="0.98"/><stop offset="1" stop-color="#fff"/></linearGradient><linearGradient id="Naamloos_verloop_34-2" x1="946.28" y1="1783.83" x2="945.82" y2="1782.64" xlink:href="#Naamloos_verloop_34"/><linearGradient id="Naamloos_verloop_34-3" x1="2988.53" y1="-909.94" x2="2990.09" y2="-911.12" gradientTransform="matrix(-0.82, 0.66, 0.33, 0.71, 3871.11, -1220.33)" xlink:href="#Naamloos_verloop_34"/><linearGradient id="Naamloos_verloop_3" x1="924.39" y1="2000.37" x2="923.37" y2="1991.89" gradientTransform="translate(2389.1 -1682.7) rotate(60.1)" gradientUnits="userSpaceOnUse"><stop offset="0" stop-color="#5ca4d4" stop-opacity="0"/><stop offset="0.37" stop-color="#5da5d4" stop-opacity="0.01"/><stop offset="0.51" stop-color="#62a7d5" stop-opacity="0.03"/><stop offset="0.6" stop-color="#69abd7" stop-opacity="0.08"/><stop offset="0.68" stop-color="#74b1da" stop-opacity="0.15"/><stop offset="0.75" stop-color="#82b9de" stop-opacity="0.23"/><stop offset="0.8" stop-color="#93c3e3" stop-opacity="0.34"/><stop offset="0.86" stop-color="#a8cee8" stop-opacity="0.47"/><stop offset="0.91" stop-color="#c0dcee" stop-opacity="0.61"/><stop offset="0.95" stop-color="#dcebf6" stop-opacity="0.78"/><stop offset="0.99" stop-color="#f9fcfd" stop-opacity="0.96"/><stop offset="1" stop-color="#fff"/></linearGradient><linearGradient id="Naamloos_verloop_3-2" x1="924.27" y1="2000.39" x2="923.25" y2="1991.9" xlink:href="#Naamloos_verloop_3"/><linearGradient id="Naamloos_verloop_3-3" x1="924.52" y1="2000.36" x2="923.49" y2="1991.87" xlink:href="#Naamloos_verloop_3"/><linearGradient id="Naamloos_verloop_3-4" x1="924.74" y1="2000.33" x2="923.72" y2="1991.84" xlink:href="#Naamloos_verloop_3"/><linearGradient id="Naamloos_verloop_3-5" x1="924.35" y1="2000.38" x2="923.33" y2="1991.89" xlink:href="#Naamloos_verloop_3"/><linearGradient id="Naamloos_verloop_3-6" x1="924.77" y1="2000.33" x2="923.75" y2="1991.84" xlink:href="#Naamloos_verloop_3"/><linearGradient id="Naamloos_verloop_3-7" x1="924.77" y1="2000.33" x2="923.74" y2="1991.84" xlink:href="#Naamloos_verloop_3"/><linearGradient id="Naamloos_verloop_3-8" x1="924.75" y1="2000.33" x2="923.73" y2="1991.84" xlink:href="#Naamloos_verloop_3"/><linearGradient id="Naamloos_verloop_3-9" x1="923.39" y1="1992.79" x2="923.64" y2="1996.83" xlink:href="#Naamloos_verloop_3"/><linearGradient id="Naamloos_verloop_3-10" x1="923.42" y1="1992.79" x2="923.68" y2="1996.83" xlink:href="#Naamloos_verloop_3"/><linearGradient id="Naamloos_verloop_3-11" x1="923.31" y1="1992.8" x2="923.56" y2="1996.83" xlink:href="#Naamloos_verloop_3"/><linearGradient id="Naamloos_verloop_3-12" x1="924.27" y1="2000.39" x2="923.24" y2="1991.9" xlink:href="#Naamloos_verloop_3"/><linearGradient id="Naamloos_verloop_3-13" x1="923.47" y1="1992.79" x2="923.72" y2="1996.82" xlink:href="#Naamloos_verloop_3"/><linearGradient id="Naamloos_verloop_34-4" x1="925.58" y1="2000.9" x2="924.47" y2="1991.74" gradientTransform="translate(2389.1 -1682.7) rotate(60.1)" xlink:href="#Naamloos_verloop_34"/><linearGradient id="Naamloos_verloop_34-5" x1="925.76" y1="2000.88" x2="924.66" y2="1991.72" gradientTransform="translate(2389.1 -1682.7) rotate(60.1)" xlink:href="#Naamloos_verloop_34"/><linearGradient id="Naamloos_verloop_34-6" x1="925.26" y1="2000.94" x2="924.16" y2="1991.78" gradientTransform="translate(2389.1 -1682.7) rotate(60.1)" xlink:href="#Naamloos_verloop_34"/><linearGradient id="Naamloos_verloop_34-7" x1="925.59" y1="2000.9" x2="924.49" y2="1991.74" gradientTransform="translate(2389.1 -1682.7) rotate(60.1)" xlink:href="#Naamloos_verloop_34"/><linearGradient id="Naamloos_verloop_34-8" x1="925.63" y1="2000.9" x2="924.52" y2="1991.73" gradientTransform="translate(2389.1 -1682.7) rotate(60.1)" xlink:href="#Naamloos_verloop_34"/><linearGradient id="Naamloos_verloop_34-9" x1="925.77" y1="2000.88" x2="924.67" y2="1991.72" gradientTransform="translate(2389.1 -1682.7) rotate(60.1)" xlink:href="#Naamloos_verloop_34"/><linearGradient id="Naamloos_verloop_34-10" x1="925.31" y1="2000.93" x2="924.21" y2="1991.77" gradientTransform="translate(2389.1 -1682.7) rotate(60.1)" xlink:href="#Naamloos_verloop_34"/><linearGradient id="Naamloos_verloop_34-11" x1="925.61" y1="2000.9" x2="924.5" y2="1991.74" gradientTransform="translate(2389.1 -1682.7) rotate(60.1)" xlink:href="#Naamloos_verloop_34"/><linearGradient id="Naamloos_verloop_34-12" x1="925.79" y1="2000.88" x2="924.69" y2="1991.71" gradientTransform="translate(2389.1 -1682.7) rotate(60.1)" xlink:href="#Naamloos_verloop_34"/><linearGradient id="Naamloos_verloop_34-13" x1="925.94" y1="2000.86" x2="924.83" y2="1991.7" gradientTransform="translate(2389.1 -1682.7) rotate(60.1)" xlink:href="#Naamloos_verloop_34"/><linearGradient id="Naamloos_verloop_3-14" x1="925.11" y1="1992.81" x2="925.45" y2="1998.21" xlink:href="#Naamloos_verloop_3"/><linearGradient id="Naamloos_verloop_3-15" x1="925.19" y1="1992.8" x2="925.53" y2="1998.2" xlink:href="#Naamloos_verloop_3"/><linearGradient id="Naamloos_verloop_34-14" x1="928.58" y1="2004.99" x2="926.89" y2="1990.95" gradientTransform="translate(2389.1 -1682.7) rotate(60.1)" xlink:href="#Naamloos_verloop_34"/><linearGradient id="Naamloos_verloop_34-15" x1="928.9" y1="2004.95" x2="927.21" y2="1990.91" gradientTransform="translate(2389.1 -1682.7) rotate(60.1)" xlink:href="#Naamloos_verloop_34"/><linearGradient id="Naamloos_verloop_3-16" x1="925.71" y1="1992.19" x2="926.16" y2="1999.38" xlink:href="#Naamloos_verloop_3"/><linearGradient id="Naamloos_verloop_3-17" x1="926.46" y1="1992.15" x2="926.91" y2="1999.33" xlink:href="#Naamloos_verloop_3"/><linearGradient id="Naamloos_verloop_34-16" x1="930.3" y1="2005.48" x2="928.52" y2="1990.68" gradientTransform="translate(2389.1 -1682.7) rotate(60.1)" xlink:href="#Naamloos_verloop_34"/><linearGradient id="Naamloos_verloop_34-17" x1="930.32" y1="2005.48" x2="928.54" y2="1990.67" gradientTransform="translate(2389.1 -1682.7) rotate(60.1)" xlink:href="#Naamloos_verloop_34"/><linearGradient id="Naamloos_verloop_34-18" x1="929.84" y1="1994.1" x2="930.27" y2="2000.8" gradientTransform="translate(2389.1 -1682.7) rotate(60.1)" xlink:href="#Naamloos_verloop_34"/><linearGradient id="Naamloos_verloop_34-19" x1="929.34" y1="1994.13" x2="929.76" y2="2000.83" gradientTransform="translate(2389.1 -1682.7) rotate(60.1)" xlink:href="#Naamloos_verloop_34"/><linearGradient id="Naamloos_verloop_31" x1="847.75" y1="221.49" x2="846.63" y2="193.87" gradientUnits="userSpaceOnUse"><stop offset="0" stop-color="#fad643"/><stop offset="0.06" stop-color="#fbd849"/><stop offset="0.14" stop-color="#fcdc59"/><stop offset="0.23" stop-color="#fee474"/><stop offset="0.25" stop-color="#ffe67b"/><stop offset="0.28" stop-color="#f4d86b"/><stop offset="0.35" stop-color="#e5c655"/><stop offset="0.43" stop-color="#dab844"/><stop offset="0.52" stop-color="#d2ad38"/><stop offset="0.65" stop-color="#cda831"/><stop offset="1" stop-color="#cca62f"/></linearGradient><linearGradient id="Naamloos_verloop_24" x1="824.01" y1="123.61" x2="868.09" y2="123.61" gradientUnits="userSpaceOnUse"><stop offset="0" stop-color="#fad643"/><stop offset="0.1" stop-color="#fbd849"/><stop offset="0.23" stop-color="#fcdc59"/><stop offset="0.37" stop-color="#fee474"/><stop offset="0.4" stop-color="#ffe67b"/><stop offset="1" stop-color="#cca62f"/></linearGradient><linearGradient id="Naamloos_verloop_24-2" x1="835.85" y1="41.57" x2="861.73" y2="47.72" xlink:href="#Naamloos_verloop_24"/><linearGradient id="Naamloos_verloop_58" x1="2278.8" y1="147.45" x2="2298.56" y2="146.69" gradientTransform="matrix(-1, 0, 0, 1, 3112.6, 0)" gradientUnits="userSpaceOnUse"><stop offset="0" stop-color="#603813"/><stop offset="0.18" stop-color="#663e18"/><stop offset="0.4" stop-color="#754c24"/><stop offset="1" stop-color="#42210b"/></linearGradient><linearGradient id="Naamloos_verloop_36" x1="784.68" y1="189.02" x2="882.23" y2="96.33" gradientUnits="userSpaceOnUse"><stop offset="0" stop-color="#805b10"/><stop offset="0.03" stop-color="#896319"/><stop offset="0.11" stop-color="#9e742c"/><stop offset="0.19" stop-color="#ab7e38"/><stop offset="0.27" stop-color="#af823c"/><stop offset="0.61" stop-color="#916922"/></linearGradient><linearGradient id="Naamloos_verloop_58-2" x1="858.26" y1="147.45" x2="878.02" y2="146.69" gradientTransform="matrix(1, 0, 0, 1, 0, 0)" xlink:href="#Naamloos_verloop_58"/><linearGradient id="Naamloos_verloop_36-2" x1="910.09" y1="185.6" x2="819.63" y2="113.35" xlink:href="#Naamloos_verloop_36"/><linearGradient id="Naamloos_verloop_24-3" x1="788.02" y1="200.91" x2="812.14" y2="199.61" xlink:href="#Naamloos_verloop_24"/><linearGradient id="Naamloos_verloop_24-4" x1="891.77" y1="200.77" x2="913.47" y2="199.94" xlink:href="#Naamloos_verloop_24"/><linearGradient id="Naamloos_verloop_36-3" x1="833.39" y1="83" x2="862.93" y2="83" xlink:href="#Naamloos_verloop_36"/><linearGradient id="linear-gradient-19" x1="846.05" y1="68.94" x2="846.05" y2="96.86" gradientUnits="userSpaceOnUse"><stop offset="0" stop-color="#273b4d"/><stop offset="1" stop-color="#634845"/></linearGradient><linearGradient id="Naamloos_verloop_8" x1="834.28" y1="84.37" x2="870.41" y2="65.09" gradientUnits="userSpaceOnUse"><stop offset="0.04" stop-color="#a2e6ed"/><stop offset="0.19" stop-color="#85d7e5"/><stop offset="0.37" stop-color="#68c9de"/><stop offset="0.47" stop-color="#5dc3db"/><stop offset="0.55" stop-color="#5bbfd7"/><stop offset="0.64" stop-color="#55b2cb"/><stop offset="0.73" stop-color="#4b9db6"/><stop offset="0.82" stop-color="#3d809a"/><stop offset="0.89" stop-color="#30657f"/></linearGradient><linearGradient id="Naamloos_verloop_8-2" x1="839.62" y1="94.37" x2="875.74" y2="75.09" xlink:href="#Naamloos_verloop_8"/><linearGradient id="Naamloos_verloop_8-3" x1="837.71" y1="90.79" x2="873.83" y2="71.51" xlink:href="#Naamloos_verloop_8"/><linearGradient id="Naamloos_verloop_8-4" x1="840.33" y1="95.7" x2="876.46" y2="76.42" xlink:href="#Naamloos_verloop_8"/><linearGradient id="Naamloos_verloop_8-5" x1="836.88" y1="89.23" x2="873" y2="69.96" xlink:href="#Naamloos_verloop_8"/><linearGradient id="Naamloos_verloop_36-4" x1="839.67" y1="132.34" x2="854.55" y2="132.34" xlink:href="#Naamloos_verloop_36"/><linearGradient id="linear-gradient-20" x1="846.05" y1="126.05" x2="846.05" y2="138.46" xlink:href="#linear-gradient-19"/><linearGradient id="Naamloos_verloop_36-5" x1="839.67" y1="152.51" x2="854.55" y2="152.51" xlink:href="#Naamloos_verloop_36"/><linearGradient id="linear-gradient-21" x1="846.05" y1="146.22" x2="846.05" y2="158.63" xlink:href="#linear-gradient-19"/><linearGradient id="Naamloos_verloop_54" x1="846" y1="194.59" x2="846.23" y2="161.39" gradientUnits="userSpaceOnUse"><stop offset="0" stop-color="#c9c9c8"/><stop offset="0.2" stop-color="#f0f0ef"/><stop offset="0.3" stop-color="#fff"/><stop offset="1" stop-color="#c9c9c8"/></linearGradient><linearGradient id="Naamloos_verloop_58-3" x1="846.16" y1="167.69" x2="845.96" y2="204.56" gradientTransform="matrix(1, 0, 0, 1, 0, 0)" xlink:href="#Naamloos_verloop_58"/><linearGradient id="Naamloos_verloop_36-6" x1="846" y1="194.6" x2="846.23" y2="162.04" xlink:href="#Naamloos_verloop_36"/><linearGradient id="Naamloos_verloop_36-7" x1="830.96" y1="55.42" x2="861.11" y2="55.42" xlink:href="#Naamloos_verloop_36"/><linearGradient id="Naamloos_verloop_8-6" x1="841.43" y1="134.05" x2="857.48" y2="125.49" xlink:href="#Naamloos_verloop_8"/><linearGradient id="Naamloos_verloop_8-7" x1="841.43" y1="154.22" x2="857.48" y2="145.66" xlink:href="#Naamloos_verloop_8"/></defs><g class="cls-6"><g id="Laag_1" data-name="Laag 1"><g class="cls-7"><rect class="cls-8" x="-185.9" y="-1.8" width="1489.5" height="302.56"/><polygon class="cls-9" points="1303.6 -1.8 558.8 -1.8 554.8 81.9 547.3 97.5 1303.6 209.6 1303.6 -1.8"/><path class="cls-10" d="M558.8-1.8l-2.3,49.6c232.9,33.9,492.3-37.1,747.1,0V-1.8Z"/><path class="cls-11" d="M558.8-1.8l-.9,20.2c151.4,20.2,556.3-25.2,745.7,0V-1.8Z"/><path class="cls-11" d="M1128.7,20c-161.3-7.4-397.2,26.9-566.6,2.5C726,61.7,966.2,21.9,1128.7,20Z"/><polygon class="cls-12" points="771.5 58.9 783.3 56.5 771.5 54 774.5 49.5 769.9 52.4 767.5 40.7 765 52.4 760.5 49.5 763.4 54 751.7 56.5 763.4 58.9 760.5 63.5 765 60.5 767.5 72.3 769.9 60.5 774.5 63.5 771.5 58.9"/><polygon class="cls-12" points="752.1 73.6 758.2 72.3 752.1 71 753.7 68.6 751.3 70.2 750 64.1 748.7 70.2 746.4 68.6 747.9 71 741.8 72.3 747.9 73.6 746.4 75.9 748.7 74.4 750 80.5 751.3 74.4 753.7 75.9 752.1 73.6"/><path class="cls-13" d="M537.1,118.8l17.7-36.9,16.4,5.2c6.1,1.9,15.4,3.2,25.7,3.7l34.3,1.7a156,156,0,0,0,25.1-.8L680,88.9a162,162,0,0,1,25.6-.8l64.6,3c11.8.5,23.3,0,31.7-1.5L835,83.8a169.1,169.1,0,0,1,32.4-1.5l139.4,5.8c13.9.6,26.9,2.4,35.3,4.8h0c8.5,2.5,21.8,4.3,36.1,4.9l67.5,3a202.1,202.1,0,0,1,35.1,4.2l2.7.7c9.3,2.2,22.2,3.8,35.8,4.4l84.3,3.8v48.2Z"/><path class="cls-14" d="M1294.3,120.4l-86.4,16c-8.2,1.5-20.4,1.9-33.3,1.3l-54.8-2.9c-17.4-.9-32.3-3.8-37.4-7.2l-3.2-2.1c-5-3.4-19.7-6.2-36.3-7l-5.9-.3c-17.6-.8-33.2.7-38.1,3.8l-23.4,14.8c-5,3.1-20.6,4.6-37.8,3.6h0c-17.2-.9-31.4-4.1-34.5-7.7L885.8,113c-4.2-4.8-28.9-8.3-49.7-7.1l-26.6,1.6a164,164,0,0,1-27.1-.8L718.3,99c-12.2-1.5-26.1-1.3-35.3.3l-44.4,8a126.2,126.2,0,0,1-24.7,1.1l-40.1-2.1c-16.6-.9-28.5-4.5-26.8-8.1l-20,41.6,776.6,48.8V116C1303.6,117.8,1300.3,119.3,1294.3,120.4Z"/><polygon class="cls-15" points="1303.6 300.7 527 300.7 527 139.8 1303.6 186.6 1303.6 300.7"/><g class="cls-16"><path class="cls-17" d="M527,148.9l75.7-3.9a514.8,514.8,0,0,1,106.2,5.8l7.5,1.2a479.9,479.9,0,0,0,84.2,6l29.4-.6c113.2-2.6,129.6,18.8,251.7,21,12.2.2,57.5,1.2,69.2,2.4l69.6,6.9a273.6,273.6,0,0,0,55,.2l28.1-2.8v19.6l-116.9-11.5a1086.4,1086.4,0,0,0-123.2-4.9h0a358.7,358.7,0,0,1-53.5-3.1l-90.3-11.9a427.6,427.6,0,0,0-53.4-3.6l-150.2-.4h-.3a302.5,302.5,0,0,1-41.4-3.2C630.1,159.6,583,155,527,159.6Z"/></g><g class="cls-18"><path class="cls-19" d="M1303.6,196.8l-47.2,2.7a290.5,290.5,0,0,1-73.1-5.4l-5.5-1.1a325.9,325.9,0,0,0-65.1-6.1l-24.3.2c-102.4,1-118.5-20.6-250.5-26.5-14.5-.7-70.5-3.5-85.7-5.3l-95.8-11.2a513.9,513.9,0,0,0-83.6-3.2L527,143V117.6l177.3,21.7A1488.4,1488.4,0,0,0,859,150.5h0a429.8,429.8,0,0,1,59.1,5.3l90.4,14.6a366.2,366.2,0,0,0,48.6,4.6l121,3.2h.1a183.7,183.7,0,0,1,29.8,3.4c30.3,5.9,61.1,10.1,95.6,7Z"/></g><path class="cls-20" d="M711.8,264c-1-.7,3.7-3.7,6.7-5.5a10.5,10.5,0,0,1,5.4-1.5l82.4.7a10,10,0,0,1,5.8,1.8l11.4,8c1.4.9.3,1.7-2.6,1.7H760.5a18.5,18.5,0,0,1-7.9-1.7h0c-1.4-1-4.9-1.8-7.8-1.8H719.7a18.5,18.5,0,0,1-7.9-1.7Z"/><path class="cls-21" d="M806.3,257.7l-82.4-.7h-1.5c-3.4,0-3.3,4,1.4,4h26c2.3,0,4.6.6,5.2,1.1s4.9,1.6,7.1,1.6h47.2c.9,0,3.6,0,4.1-1.8a2.4,2.4,0,0,0-.2-1.8l-1.1-.7A10,10,0,0,0,806.3,257.7Z"/><path class="cls-22" d="M724.3,258c-.7-.5,2.8-2.8,5.2-4.3a8.5,8.5,0,0,1,4.2-1.1l63.5.5a8,8,0,0,1,4.5,1.4l8.7,6.2c1.2.7.3,1.3-1.9,1.3H761.9a13.8,13.8,0,0,1-6.1-1.3h0c-1.1-.8-3.8-1.4-6.1-1.4H730.4a13.8,13.8,0,0,1-6.1-1.3Z"/><path class="cls-21" d="M797.2,253.1l-63.5-.5h-1.2c-2.6,0-2.6,3.1,1,3.1h20.1a10.1,10.1,0,0,1,4,.8,12.4,12.4,0,0,0,5.5,1.3h36.4c.7,0,2.8,0,3.2-1.5a1.3,1.3,0,0,0-.2-1.3l-.8-.6A8,8,0,0,0,797.2,253.1Z"/><path class="cls-23" d="M733.8,253.4c-.9-.6,5.6-4.2,5.6-4.2l53.3.4,8.4,5.9c.8.6.1,1.1-1.6,1.1H763.1a10.2,10.2,0,0,1-4.7-1.1h0a10.4,10.4,0,0,0-4.8-1H738.5a10.2,10.2,0,0,1-4.7-1.1Z"/><path class="cls-21" d="M739.7,249.6c-.7-.4-.2-.8,1.2-.8h48a9.4,9.4,0,0,1,3.8.8l2.5,1.7c.7.4.1.8-1.2.8H763a9.4,9.4,0,0,1-3.8-.8h0a8,8,0,0,0-3.8-.8h-12a7.2,7.2,0,0,1-3.7-.9Z"/><path class="cls-21" d="M736.6,250.9l1.5-1,.7.5a6.7,6.7,0,0,0,3.4,1h12.3a13.3,13.3,0,0,1-4.8,1h-9a5.8,5.8,0,0,1-3.6-1.2Z"/><path class="cls-21" d="M797.3,254.2H767.1a7.7,7.7,0,0,1-3.9-1.1h30.2a7.4,7.4,0,0,1,3.9,1.1Z"/><path class="cls-24" d="M964.4,235.4c-1.4-.9,5.1-5.1,9.5-7.7a14.5,14.5,0,0,1,7.6-2.1l115.8,1a13.9,13.9,0,0,1,8.1,2.6l15.9,11.1c2.1,1.4.5,2.5-3.6,2.5h-84.9c-4,0-9-1.1-11-2.5h0c-2.1-1.3-7-2.4-11-2.4H975.5c-4.1,0-9-1.1-11.1-2.5Z"/><path class="cls-21" d="M1097.3,226.6l-115.8-1h-2.2c-4.8,0-4.6,5.7,1.9,5.7h36.7a17.8,17.8,0,0,1,7.3,1.5c2.2,1.5,6.8,2.3,9.9,2.3h66.3c1.3,0,5,0,5.8-2.6a3.1,3.1,0,0,0-.3-2.4l-1.5-1A13.9,13.9,0,0,0,1097.3,226.6Z"/><path class="cls-25" d="M982,227c-1.1-.7,3.9-4,7.2-6a11.1,11.1,0,0,1,5.9-1.6l89.4.8a11.2,11.2,0,0,1,6.3,2l12.2,8.6c1.6,1,.4,1.9-2.8,1.9h-65.5c-3.1,0-6.9-.9-8.5-1.9h0c-1.5-1.1-5.4-1.9-8.5-1.9H990.5c-3.1,0-6.9-.9-8.5-1.9Z"/><path class="cls-21" d="M1084.5,220.2l-89.4-.8h-1.6c-3.7,0-3.6,4.4,1.4,4.4h28.3a12.6,12.6,0,0,1,5.6,1.2c1.8,1.1,5.3,1.7,7.7,1.7h51.2c.9,0,3.8,0,4.4-2a2,2,0,0,0-.2-1.8l-1.1-.8A11.2,11.2,0,0,0,1084.5,220.2Z"/><path class="cls-26" d="M995.3,220.6c-1.2-.8,7.8-6,7.8-6l74.9.7,11.8,8.2c1.3.8.3,1.5-2.1,1.5h-51.2a14.6,14.6,0,0,1-6.6-1.5h0a15.4,15.4,0,0,0-6.7-1.5h-21.3c-2.4,0-5.4-.6-6.6-1.4Z"/><path class="cls-21" d="M1003.5,215.3c-.9-.7-.2-1.2,1.8-1.2h67.5c1.9,0,4.3.5,5.2,1.2l3.6,2.3c1,.6.2,1.2-1.7,1.2h-43.6a12.6,12.6,0,0,1-5.3-1.2h0a10.9,10.9,0,0,0-5.3-1.2h-16.9a12.7,12.7,0,0,1-5.3-1.1Z"/><path class="cls-21" d="M999.2,217a17.9,17.9,0,0,1,2.2-1.3l1,.6a9,9,0,0,0,4.8,1.4h17.1a16.6,16.6,0,0,1-6.6,1.4h-12.6a8.7,8.7,0,0,1-5.2-1.6Z"/><path class="cls-21" d="M1084.6,221.7h-42.5a10,10,0,0,1-5.5-1.6h42.5a9.8,9.8,0,0,1,5.5,1.6Z"/><path class="cls-27" d="M742.8,276.7c1-.7-3.7-3.7-6.7-5.5a9.6,9.6,0,0,0-5.4-1.5l-82.4.7a10,10,0,0,0-5.8,1.8l-11.4,7.9c-1.4,1-.3,1.8,2.6,1.8h60.4c2.9,0,6.4-.8,7.9-1.8h0c1.4-.9,4.9-1.7,7.8-1.7h25.1a18.5,18.5,0,0,0,7.9-1.7Z"/><path class="cls-21" d="M648.3,270.4l82.4-.7h1.5c3.4,0,3.3,4-1.4,4h-26a11.5,11.5,0,0,0-5.2,1.1c-1.6,1.1-4.9,1.6-7.1,1.6H645.3c-.9,0-3.6,0-4.1-1.8a2.4,2.4,0,0,1,.2-1.8l1.1-.7A10,10,0,0,1,648.3,270.4Z"/><path class="cls-28" d="M730.3,270.7c.8-.5-2.8-2.8-5.2-4.3a8.5,8.5,0,0,0-4.2-1.1l-63.5.5a8,8,0,0,0-4.5,1.4l-8.7,6.2c-1.2.7-.3,1.3,2,1.3h46.6a13.7,13.7,0,0,0,6-1.3h0c1.1-.8,3.8-1.4,6.1-1.4h19.3a13.8,13.8,0,0,0,6.1-1.3Z"/><path class="cls-21" d="M657.4,265.8l63.5-.5h1.2c2.6,0,2.6,3.2-1,3.2H701a10.1,10.1,0,0,0-4,.8,12.4,12.4,0,0,1-5.5,1.3H655.1c-.7,0-2.8,0-3.2-1.5a1.7,1.7,0,0,1,.2-1.3l.8-.6A8,8,0,0,1,657.4,265.8Z"/><path class="cls-29" d="M720.8,266.1c.9-.6-5.6-4.2-5.6-4.2l-53.3.4-8.4,5.9c-.8.6-.1,1,1.6,1h36.4a10,10,0,0,0,4.7-1h0a10.3,10.3,0,0,1,4.8-1.1h15.1a10.3,10.3,0,0,0,4.7-1Z"/><path class="cls-21" d="M715,262.3c.7-.4.1-.8-1.3-.8h-48a9.4,9.4,0,0,0-3.8.8l-2.5,1.7c-.7.4-.1.8,1.3.8h30.9a9.4,9.4,0,0,0,3.8-.8h0a7.9,7.9,0,0,1,3.8-.9h12a8,8,0,0,0,3.8-.8Z"/><path class="cls-21" d="M718,263.6l-1.5-1-.7.5a6.7,6.7,0,0,1-3.4.9H700.2a10.8,10.8,0,0,0,4.7,1.1h9a5.8,5.8,0,0,0,3.6-1.2Z"/><path class="cls-21" d="M657.3,266.9h30.2a6.9,6.9,0,0,0,3.9-1.2H661.2a7.8,7.8,0,0,0-3.9,1.2Z"/><path class="cls-30" d="M696.9,186.5H667c-2.5,1.1-4,2.3-4,3s8.5,3.2,19,3.2,18.9-1.4,18.9-3.2S699.4,187.6,696.9,186.5Z"/><ellipse class="cls-31" cx="682" cy="187" rx="15.2" ry="2.5"/><path class="cls-32" d="M682,184.5c-7.9,0-14.4,1-15.2,2.2a70.4,70.4,0,0,1,11.7-.9c8.4,0,15.2,1.1,15.2,2.5v.3c2.2-.5,3.5-1,3.5-1.6S690.4,184.5,682,184.5Z"/><path class="cls-33" d="M716.7,196.7H696.6c-1.7.7-2.8,1.5-2.8,2s5.8,2.2,12.9,2.2,12.8-1,12.8-2.2S718.4,197.4,716.7,196.7Z"/><ellipse class="cls-31" cx="706.7" cy="197" rx="10.3" ry="1.7"/><path class="cls-32" d="M706.7,195.3c-5.4,0-9.7.7-10.3,1.5a53.1,53.1,0,0,1,7.9-.6c5.7,0,10.3.8,10.3,1.7v.2c1.4-.3,2.3-.7,2.3-1.1S712.3,195.3,706.7,195.3Z"/><rect class="cls-34" x="-185.9" y="-1.8" width="972.9" height="302.56"/><path class="cls-35" d="M960.6,300.7s12.2-18.9,17.2-22.3a55,55,0,0,1,18.5-8.3c8.1-2.2,18.1-6.6,21.8-9.4s1.3-4,11.3-10.5,3.1-7.9,15.9-10.5,20.4-.4,26.6-6,14.7-15.6,16-15.7,8.1-3.8,13.1-4.3,13.5-.9,16.3-6,3.9-4.8,6.1-10,6-5.9,12-8,15.3-1.9,22.2-1.9,12-3.9,24.1,1.2,16.6,4.5,24.7,6.1,12.5,3.8,22.5,2.6,15.6-2.5,21-2.6,7.2,3.2,15.6,0,6.6-4.8,14.7-5.7,16.8-2.8,18.1-2.9l5.3-.4V300.7Z"/><path class="cls-36" d="M1184,194.4l49.7,13.7,44.1,10.5,25.5-26.8V9.3s-9.8,9.3-12.2,12.8-5.1,2.3-8.2,16-2.4,9.3-7.3,17.1-3.6,1.7-10.3,6.2-12.7,3-9.1,12.2-15.5,26.4-15.5,28.6-.6,2.8-4.4,8.5-5,3.5-7.4,5.3-4.7,1.3-6.4,8.4-.1,1.7-.8,6.5-3.4,3.2-8,5.3-3.2,3.4-5.3,5.4-8.4,5.6-10.9,7.7-4,9.6-6.9,10.7.2.8.5,3.3-.3,2.2-.8,2.5a13.8,13.8,0,0,0-2.4,3.2c-.6,1-.3,2.2-.4,4.7s.2.7-1,5.7-.9.5-2.9,1.8-2.4-.3-3.7,1.5-1,.8-2.6,1.6-1.4,1.1-2.1,1.7-1.5,3.1-1.5,3.1S1175,194,1184,194.4Z"/><g class="cls-37"><path class="cls-38" d="M1296.6,176.9c-2.6-1.4-4.9-3.2-7.5-4.3a19.5,19.5,0,0,0-7.6-1.1,3.4,3.4,0,0,0-3.4,3.9,17.5,17.5,0,0,1-.3,7.2,5.9,5.9,0,0,1-1.3,2.9c-1.7,1.9-4.9,1.8-6.9,3.3a7.6,7.6,0,0,1-2.5,1.9c-1.5.6-3.2-.4-4.8-1-3.4-1.4-7.3-.9-10.8.1s-7,2.5-10.7,3a21.4,21.4,0,0,1-13.3-2.4c-2.2-1.2-4.4-2.9-6.9-2.8a15.5,15.5,0,0,0-4.2,1.2c-7.4,2.5-15.1-.9-22.8-2.8a1.6,1.6,0,0,0,0-2.2c2.4.2,5.4,0,6.1-2.3,1.8-.2,3.9-1,4-2.7s-4.8-4.2-3.6-6.6c.2-.5.7-.8,1-1.2,2.3-2.1,2.7-5.5,2.9-8.6,1.1.5,2.4-.4,3-1.5s.9-2.3,1.8-3.2a24.3,24.3,0,0,0,2-1.4c1.8-1.4,1.8-3.9,2-6.2s.9-4.8,3-5.5,2.5-.2,3.6-.9,1.3-2.6,2.5-3.4a4.8,4.8,0,0,1,2.9-.4l9.6.9a3.7,3.7,0,0,0,2.8-.9c1.7-1.8,0-4.3-1.7-5.7s-3.7-2.6-3.7-4.7c1.7,0,2.6-2,3.4-3.5a15.7,15.7,0,0,1,4.7-5.8l6.6-.7c.5-2.1-.4-4.3-.2-6.5a15,15,0,0,1,1.8-5l2.8-5.4c1.9-3.6,4-7.4,7.7-9.1s10-.7,13-4.3c-1.6-2.3-3.1-4.6-4.6-7l.3-.3a7.8,7.8,0,0,1,1.7-11.4c1.9-1.2,4.2-1.5,6.5-1.9s4.5-1.3,5.8-3.2.8-4.9-1.3-5.6c3.4-1.7,5.3-5.4,6.9-8.9s3.6-9.2.8-12.6a27.2,27.2,0,0,1,8.4-5.9c.9-.4,1.9-.8,2.2-1.6a6.4,6.4,0,0,0,.3-2c.1-2.8,2-5.2,4-7.2l1-1.1V9.1s-9.7,9.4-12.1,12.8-5.2,2.3-8.2,16-2.5,9.4-7.3,17.2-3.7,1.6-10.3,6.2-12.8,3-9.1,12.1-15.5,26.4-15.5,28.7-.6,2.7-4.4,8.5-5,3.5-7.5,5.2-4.7,1.3-6.3,8.5-.2,1.6-.8,6.5-3.5,3.2-8,5.3-3.2,3.3-5.4,5.4-8.3,5.5-10.9,7.6-3.9,9.6-6.9,10.7.2.9.5,3.3-.3,2.3-.7,2.5-1.8,2.1-2.4,3.2-.4,2.2-.4,4.8.1.7-1,5.7-.9.4-2.9,1.7-2.4-.2-3.8,1.5-1,.9-2.5,1.6-1.4,1.2-2.1,1.8a11.1,11.1,0,0,0-1.6,3l.3.6,1.7.6a7.8,7.8,0,0,0-1.6,2.4,5.2,5.2,0,0,0-.5,3c.6,2.9,4.3,4,7.3,4.2,11,.9,22.1-.5,33.1.9s22.7,5.8,33.4,2.3c2.8-.8,15.7.8,18.5-.3,14.4-6.2,20.3-8.7,35.9-10.6a2.3,2.3,0,0,0,1.8-.7,2.6,2.6,0,0,0,.4-1.5c.2-4,.3-8,.5-12C1302.2,179,1299.1,178.2,1296.6,176.9Z"/></g><path class="cls-39" d="M970.6,300.7s11.9-18.4,16.7-21.8a57.4,57.4,0,0,1,17.9-8.2c7.9-2.1,17.6-6.3,21.3-9.1s1.2-3.9,10.9-10.3,3-7.7,15.5-10.2,19.7-.4,25.8-5.9,14.3-15.3,15.5-15.4,7.9-3.7,12.7-4.1,13.1-1,15.8-5.9,3.8-4.7,6-9.9,5.8-5.7,11.6-7.8,14.9-1.8,21.6-1.8,11.6-3.8,23.3,1.2,16.2,4.4,24,5.9,12.2,3.7,21.9,2.5,15.2-2.4,20.3-2.5,7,3.1,15.2,0,6.4-4.7,14.3-5.6,16.3-2.7,17.5-2.8l5.2-.4V300.7Z"/><path class="cls-40" d="M1008,300.7s6-15,12.9-17.4,17-2.9,25.5-9.3,2.8-15.4,19-15.8,25.9-8.5,28.4-9.3,8.5-5.9,13.3-7.8,12.6-2.2,19.9-3.3,1.2,6.2,15.3-2.7,14.2-13.9,17.9-14.8,7.2-4.3,11.3-4.6,14.2-2.5,17.4,0,9.7,6.9,15.8,8.5,38-11.8,42.5-11.4,19.8-.5,22.6-1a42.9,42.9,0,0,0,10.6-4.2,39.8,39.8,0,0,1,10.4-4.2c4.1-1.1,12.8-6.6,12.8-6.6V300.7Z"/><path class="cls-41" d="M1168.6,279.8c-.9-.7,3.7-3.7,6.7-5.5a10.8,10.8,0,0,1,5.5-1.5l82.3.7a10.3,10.3,0,0,1,5.9,1.8l11.3,8c1.4.9.3,1.7-2.6,1.7h-60.4c-2.9,0-6.4-.8-7.8-1.7h0c-1.5-1-5-1.8-7.9-1.8h-25.1a18.5,18.5,0,0,1-7.9-1.7Z"/><path class="cls-42" d="M1263.1,273.5l-82.3-.7h-1.6c-3.4,0-3.3,4,1.4,4h26.1a12,12,0,0,1,5.1,1.1c1.7,1.1,4.9,1.6,7.1,1.6h47.2c.9,0,3.6,0,4.1-1.8a1.8,1.8,0,0,0-.2-1.7l-1-.8A10.3,10.3,0,0,0,1263.1,273.5Z"/><path class="cls-43" d="M1181.1,273.8c-.7-.5,2.8-2.8,5.2-4.3a8.8,8.8,0,0,1,4.2-1.1l63.5.5a7.4,7.4,0,0,1,4.5,1.5l8.8,6.1c1.1.7.2,1.3-2,1.3h-46.6a13.8,13.8,0,0,1-6.1-1.3h0c-1.1-.8-3.8-1.4-6-1.4h-19.4a14.2,14.2,0,0,1-6.1-1.3Z"/><path class="cls-42" d="M1254,268.9l-63.5-.5h-1.2c-2.6,0-2.6,3.1,1.1,3.1h20.1a10.6,10.6,0,0,1,4,.8,11.6,11.6,0,0,0,5.4,1.3h36.4c.7,0,2.8,0,3.2-1.5a1.3,1.3,0,0,0-.2-1.3l-.8-.5A7.4,7.4,0,0,0,1254,268.9Z"/><path class="cls-44" d="M1190.6,269.2c-.9-.6,5.6-4.2,5.6-4.2l53.3.4,8.4,5.9c.8.6.2,1.1-1.6,1.1h-36.4a10.2,10.2,0,0,1-4.7-1.1h0a10.3,10.3,0,0,0-4.7-1h-15.2a10.2,10.2,0,0,1-4.7-1.1Z"/><path class="cls-42" d="M1196.5,265.4c-.7-.4-.2-.8,1.2-.8h48a9.4,9.4,0,0,1,3.8.8l2.5,1.7c.7.4.1.8-1.2.8h-31a9.4,9.4,0,0,1-3.8-.8h0a7.8,7.8,0,0,0-3.7-.8h-12.1a7.5,7.5,0,0,1-3.7-.9Z"/><path class="cls-42" d="M1193.4,266.7l1.5-1,.7.5a6.7,6.7,0,0,0,3.4,1h12.3a13.3,13.3,0,0,1-4.8,1h-8.9a6.1,6.1,0,0,1-3.7-1.2Z"/><path class="cls-45" d="M1137.7,260.5a4.7,4.7,0,0,0-1.8,2.3,6.9,6.9,0,0,0,.7,5.1c1.1,1.7,11.1,6.9,14.2,8.3s8.2,1.6,11.2,1.4a10.1,10.1,0,0,0,5.7-2.1c.6-.7.1-4.1-.3-4.9S1137.7,260.5,1137.7,260.5Z"/><path class="cls-45" d="M1180,241.3a10.8,10.8,0,0,1,1.5,2.6c.3,1.3.4,3.2-3.9,3.7a44.4,44.4,0,0,1-11.6,0c-2.5-.4-4-3.1-4-3.1l1.7-3,9.5,2.3Z"/><path class="cls-46" d="M1175.4,228.1s1.6,3.9,3,7,2.6,8.7.5,9.7-6.8,1.2-11,.3-5-3-5.1-3-.1-13.1-.1-13.1l-.7-3.9s4.8-.9,5.2-.8Z"/><path class="cls-47" d="M1177.5,194s-2.4,12.9-2.9,16.6,1.4,4.9.8,8.4.4,7.6.6,9.6-4.7,4.4-9.8,1.8-4.1-9-4.6-13.3-1.9-10.1-.6-14.4,2.3-8,2.3-8S1169.1,178,1177.5,194Z"/><path class="cls-48" d="M1130.4,106.7s-6.4,36.7,2.8,69.8,40,20.2,48.2,15.6,15.6-26.5,16.6-40.8-.5-46.1-3.9-48.7-25.4-8.4-35.4-7.4S1134.8,99.3,1130.4,106.7Z"/><path class="cls-49" d="M1205.2,243.9c-4.7,0-10.4-.7-13.6-3.7a8.3,8.3,0,0,1-2.7-7.3c.4-5.1,4.1-9.6,7.6-13.9,5.9-7.2,9.5-12.4,6.5-19.1-6.1-13-16.6-15-16.7-15a3.1,3.1,0,0,1,1.1-6.2c.5.1,13.9,2.6,21.3,18.6,4.9,10.7-1.9,19-7.3,25.7-3.1,3.7-6,7.3-6.3,10.4a2.5,2.5,0,0,0,.7,2.2c2.7,2.4,11.1,2.3,16.3,1.5a3.1,3.1,0,0,1,1,6.2A55.7,55.7,0,0,1,1205.2,243.9Z"/><path class="cls-50" d="M1130.5,166.6c-.4,0-.8.3-.7.7l1.7,7.3a1.2,1.2,0,0,0,.9.9c1.7.3,7.2,1.1,24.4,2.5,24.4,1.9,34.2-1.5,35.9-2.2a.8.8,0,0,0,.4-.4l1.6-5.4c.2-.4-.2-.7-.6-.7C1189.6,170,1167.6,172.9,1130.5,166.6Z"/><path class="cls-51" d="M1089.5,122.7s.3-1.5-3.6-3.6-3.6-2.2-9,1-7.4,8.7-5.8,11.1,9.6,3.2,12.5,3.2S1089.8,124.9,1089.5,122.7Z"/><path class="cls-52" d="M1088.6,123.1s-.8-2.2-1.7-2.6-1.7.5-2.8,1.8-2.6,5.3-4.1,6.6,2.3,2.5,3.7,2.5S1090.2,124.2,1088.6,123.1Z"/><path class="cls-53" d="M1088.6,123.1s-8,7.9-4,14,14,8.1,22,6.8,8-2,9.8-2.8-3.1-23-6.3-23-5.9,0-8.5,1.4S1092.5,121.2,1088.6,123.1Z"/><path class="cls-54" d="M1120.3,112c.6-.2,7-4.9,11.2-6.8s14,8.6,10.9,19.1-6.6,15.1-14.1,16.2-19.2,1.7-21.1-3.9-2.7-16,3.3-18.7A45.8,45.8,0,0,0,1120.3,112Z"/><path class="cls-55" d="M1065.7,119.1a6.7,6.7,0,0,1,2.4-3c.9-.4,14,1.5,14,1.5l-5.9,2.9S1066.1,119.9,1065.7,119.1Z"/><path class="cls-56" d="M1076.2,133.6s-.9,3.1-2.1,3.1-4.8-1.3-5.4-5.5.9-3.9,1.9-3.3S1075.9,132.1,1076.2,133.6Z"/><path class="cls-57" d="M1071,120.1s-1.7,1.6-1.7,2.6,3.7.8,3.7.8l3.5-3Z"/><path class="cls-58" d="M1068.9,128s.1-4.8.7-4.8a26.9,26.9,0,0,1,3.5.3l-1.8,4.9Z"/><path class="cls-59" d="M1138.3,95.9s-5.2,1.4-6.1,2.9.7,3.2,3.1,3.8a97.3,97.3,0,0,0,35.6,2.4c18-2.3,15.3-9.2,14.5-9.9s-11-3.1-15.4-3.3S1159.4,91.3,1138.3,95.9Z"/><path class="cls-60" d="M1133.8,178.4s-3.2,7.6-4.4,21.8-1.2,6.3-1.1,13.1,3.7,10.5,4.6,17.7,2.8,16.7,9.2,20.2,14.5,2.2,17.3,0,4.8-9,4.6-15.4-1.8-8.1-1.8-14.8-.1-8.3,1.1-12.7a43,43,0,0,0,1.3-10.3c0-2.3-7.3-13.3-13.5-17.3S1141.3,175,1133.8,178.4Z"/><path class="cls-61" d="M1143.1,251.6c-.1.2,2.1,4.1,1.7,5.5s-1.6.2-4.4.9-3.9,5.3-3.4,7.1,15,9,18.5,9.5,9.8-.4,10.9-1.2,2-8.5.3-11-7-9.7-6.8-12.3S1143.7,249,1143.1,251.6Z"/><path class="cls-62" d="M1145,250.2a26.6,26.6,0,0,1,1.4,5.4c.1,1.5-1.2,1.5-1.6,1.5s-.4-.7-.7-1.6-1.3-3.4-1.5-4.1S1143.8,249.6,1145,250.2Z"/><path class="cls-63" d="M1127.7,162.5s9.5,1,12.8,2.2-.6,12.2-1.2,13.9-1.5,4.3-5.5,4.4-8-2.4-8.4-4.4,1-11.4,1.4-13S1127.2,162.4,1127.7,162.5Z"/><path class="cls-64" d="M1127.4,161.9a14.9,14.9,0,0,1,3.7.4c.8.4.4.4.2,1.9s-3.2,16.3-3.3,17-2.8-1.4-3.2-2.2S1126.8,163,1127.4,161.9Z"/><path class="cls-65" d="M1124.8,175.7s1.8,0,2.3.9a4.2,4.2,0,0,1,0,3.3c-.2.4-.1.4-.8.6s-1,3.4-1.2,3.8-1.5.2-1.8,0S1124.5,176.3,1124.8,175.7Z"/><ellipse class="cls-66" cx="1130.9" cy="179.9" rx="0.9" ry="1.1" transform="translate(467.6 1113.3) rotate(-63.6)"/><path class="cls-67" d="M1138.1,76.8a7.3,7.3,0,0,0,3.3,2.1v.2a11.1,11.1,0,0,0-.1,2.6c.4,8.2,9,14.4,19.1,13.8h.2l2.5-.3a19.9,19.9,0,0,0,4.6-1.3c6.3-2.7,10.5-8.2,10.1-14.3a12.7,12.7,0,0,0-.4-2.6h-.1a7,7,0,0,0,3.1-2.5c2.3-3.4,1.2-8.4-2-9.5a4.1,4.1,0,0,0-3.4.4h-.1l-.8-1.7-.6-1.2a19.2,19.2,0,0,0-11-8.4,5.4,5.4,0,0,0-4.3-2.8h-.4v.6l-.3,1.8h-1l-2.9-1.5v2.3a19.3,19.3,0,0,0-9.9,9.6l-.6,1.3-.6,1.8a3.6,3.6,0,0,0-3.5,0C1136,68.5,1135.5,73.7,1138.1,76.8Zm7.6-3a6,6,0,0,0,.8,2.8l.5.8-.5-.8A6,6,0,0,1,1145.7,73.8Z"/><path class="cls-68" d="M1157.7,51.8c.5-.1,1.6.6,2.9,1.8l1,1a28.8,28.8,0,0,1,7,11.8c2.1,7.7,3.3,16.8.7,22a19.2,19.2,0,0,1-6.2,6.8,19.9,19.9,0,0,0,4.6-1.3c6.3-2.7,10.5-8.2,10.1-14.3a12.7,12.7,0,0,0-.4-2.6h-.1a7,7,0,0,0,3.1-2.5c2.3-3.4,1.2-8.4-2-9.5a4.1,4.1,0,0,0-3.4.4h-.1l-.8-1.7-.6-1.2a19.2,19.2,0,0,0-11-8.4,5.4,5.4,0,0,0-4.3-2.8h-.4Z"/><path class="cls-69" d="M1124,70.8a32.6,32.6,0,0,0,14.4,26.8c5.6,3.8,37.5,2.5,43.7-3.2a32.3,32.3,0,0,0,10.3-23.6c0-18.2-15.3-32.9-34.2-32.9S1124,52.6,1124,70.8Z"/><path class="cls-70" d="M1134.7,98.2a14.9,14.9,0,0,1,0-3c.2-.4,34.4-5,50.2-2.7.8.7.5,2.6.5,2.6S1163.6,105.9,1134.7,98.2Z"/><path class="cls-71" d="M1163.1,90.7l37.8-6.7a5.5,5.5,0,0,1,6.3,5l3.3,74.7a5.5,5.5,0,0,1-4.3,5.8l-38.4,8.4a5.5,5.5,0,0,1-6.7-5.2l-2.6-76.4A5.6,5.6,0,0,1,1163.1,90.7Z"/><polyline class="cls-72" points="1173 176.8 1179.1 178 1205.5 172.6 1206.7 169.4 1205.7 145.3 1199 121.5 1184.5 122.3 1177.8 146.8 1180.4 173.2 1173 176.8"/><path class="cls-73" d="M1163.1,90.7l2.4-.4c.3,8.5,4.6,83.7,4.7,87.1l-2.4.5a5.5,5.5,0,0,1-6.7-5.2l-2.6-76.4A5.6,5.6,0,0,1,1163.1,90.7Z"/><polygon class="cls-74" points="1164.6 88.5 1175.2 86.8 1180.2 91.1 1169.9 93 1165.9 90.4 1162.9 90.8 1164.6 88.5"/><polygon class="cls-75" points="1190.9 84.1 1200 82.6 1204.3 87.2 1195.5 88 1192 85.7 1189.2 86.1 1190.9 84.1"/><ellipse class="cls-76" cx="1173.8" cy="89.9" rx="2" ry="0.9" transform="translate(-2.8 127.6) rotate(-6.2)"/><path class="cls-77" d="M1188.4,151.5c1.9,17,15.8,15.5,14-1.5S1186.5,134.5,1188.4,151.5Z"/><path class="cls-78" d="M1189.5,151.4c1.7,15.4,14.2,14,12.6-1.4S1187.9,136,1189.5,151.4Z"/><path class="cls-79" d="M1191,151.2c1.4,14.2,11.9,13.1,10.3-1.1S1189.4,137.1,1191,151.2Z"/><ellipse class="cls-80" cx="1199.2" cy="85.6" rx="1.7" ry="0.8" transform="translate(-2.2 130.3) rotate(-6.2)"/><g class="cls-81"><path class="cls-82" d="M1129.9,81.8a.9.9,0,0,1-.8-.6c-.1-.2-6.5-18.5,6.7-32.1a.8.8,0,0,1,1.2,0,.9.9,0,0,1,.1,1.3c-12.5,12.7-6.4,30-6.4,30.2a.8.8,0,0,1-.5,1.1Z"/></g><g class="cls-81"><path class="cls-82" d="M1139.3,47.9a1,1,0,0,1-.7-.4.9.9,0,0,1,.2-1.3l3.7-2.5a1,1,0,0,1,1.3.3,1,1,0,0,1-.3,1.2l-3.7,2.5Z"/></g><path class="cls-83" d="M1120.7,116.7h.1c.2,0,.3-.1.5-.3l.5-.3h0c.1-.1.1-.1.1-.2h-.2l-.5.3-.4.4h-.1Z"/><path class="cls-84" d="M1122.2,111.1l.8-.6.5-.2,1.4-.5h1.5c.4.1.6.2.5.5s0,.1-.2.2l-.2.2h-.6c-.2.1-.4,0-.4-.1s-.1.2-.3.2h-.1l-.6.3h2.4c.2-.1.2-.2.2-.3a.4.4,0,0,0-.1-.3l-.5-.2a4.7,4.7,0,0,0-1.6.1,7.6,7.6,0,0,0-1.6.6l-.5.2-1,.6Z"/><path class="cls-84" d="M1123.8,110.8h.7v-.2h-.6a.1.1,0,0,0-.1.1Z"/><path class="cls-85" d="M1124.3,111.3h.2l.6-.3h.1l-.9.4Z"/><path class="cls-85" d="M1123,110.5l-.8.6h.1Z"/><path class="cls-85" d="M1124.5,110.4v.2h.2a.1.1,0,0,0-.1-.1Z"/><path class="cls-85" d="M1126.6,110.4h-.5c-.3.1-.5,0-.4-.1h-.2c0,.1.2.2.4.1h.6l.2-.2h0A.1.1,0,0,1,1126.6,110.4Z"/><path class="cls-86" d="M1124.4,110.7h0Z"/><path class="cls-86" d="M1125.5,110.6h0c0,.1-.2.2-.3.3h0c.2,0,.2-.1.3-.2Z"/><path class="cls-86" d="M1126.1,109.7a.1.1,0,0,1-.1-.1h.1Z"/><path class="cls-86" d="M1125.7,110.5h0c-.1.1.1.2.4.1h.3v-.2h-.1c0-.8-1.4-.3-1.1-.4a1.8,1.8,0,0,1,1-.2h-.7l-.3.3-.5.4h-.3l-.4.6h.3l.9-.4c.1-.1.3-.2.3-.3h.2Z"/><path class="cls-87" d="M1125.2,109.8h0Z"/><path class="cls-87" d="M1124.3,110.7h0Z"/><path class="cls-87" d="M1124.6,110.3a.1.1,0,0,1,.1.1l.5-.4.3-.3h-.3l-.7.6h.1Z"/><path class="cls-87" d="M1124,111.3h0l.4-.6h-.4l-.4.6h.4Z"/><path class="cls-87" d="M1123.8,110.8h0a.1.1,0,0,1,.1-.1h-.1l-.2.2h.2Z"/><path class="cls-87" d="M1124.8,109.8h.1l-1.4.5-.5.2.3-.2Z"/><path class="cls-87" d="M1122.3,111.1h.5l.3-.3a5,5,0,0,1,1.5-.7c-1.2.4-1.5.8-1.6,1h.1l.5.4.4-.6h-.4l.2-.2h.7l.7-.6h-.4l-1.5.5-.3.2Z"/><path class="cls-87" d="M1126.1,109.7h.3v-.2h-.3A.1.1,0,0,0,1126.1,109.7Z"/><path class="cls-87" d="M1126.2,109.8h.2c.3.3.1.4,0,.4v.2h.2a.1.1,0,0,0,.1-.1.5.5,0,0,0-.3-.5h-.2Z"/><path class="cls-87" d="M1126.8,110.2h-.1c.2-.1.2-.1.2-.2s-.1-.4-.5-.5h-.1v.2A.4.4,0,0,1,1126.8,110.2Z"/><path class="cls-87" d="M1126.4,109.8a.5.5,0,0,1,.3.5h.1A.4.4,0,0,0,1126.4,109.8Z"/><path class="cls-86" d="M1126.2,109.8a1.8,1.8,0,0,0-1,.2c-.3.1,1.1-.4,1.1.4h.1C1126.4,110.1,1126.3,110,1126.2,109.8Z"/><path class="cls-88" d="M1126.2,109.8a1.8,1.8,0,0,0-1,.2c-.3.1,1.1-.4,1.1.4h.1C1126.4,110.1,1126.3,110,1126.2,109.8Z"/><path class="cls-87" d="M1126.4,109.9h-.2c.1.2.2.3.2.5S1126.7,110.2,1126.4,109.9Z"/><path class="cls-89" d="M1126.4,109.9h-.2c.1.2.2.3.2.5S1126.7,110.2,1126.4,109.9Z"/><path class="cls-87" d="M1123,111h0c.1-.2.4-.6,1.6-1a5,5,0,0,0-1.5.7l-.3.3Z"/><path class="cls-90" d="M1123,111h0c.1-.2.4-.6,1.6-1a5,5,0,0,0-1.5.7l-.3.3Z"/><path class="cls-84" d="M1125.4,111.3s1.3-.1,1.7.7h-.1a7.2,7.2,0,0,1-3.4,1.4h-.6l-.4.3.7-.2h1.1a7.3,7.3,0,0,0,2.8-1.4h0c.2-.1.3-.3.2-.4a.3.3,0,0,1-.1-.2,1.3,1.3,0,0,0-.9-.4H1125l-.5.3Z"/><path class="cls-84" d="M1117.1,115.2h0c0-.1.1-.1.1-.2l-1.5.2-1,.6,2.4-.3Z"/><path class="cls-84" d="M1120.4,112.1h.7l-.2-.2-.6.4Z"/><path class="cls-84" d="M1117.4,114.3c.1-.1.2-.3.4-.4l-.9.6Z"/><path class="cls-84" d="M1118.2,113.6Z"/><path class="cls-84" d="M1123.5,111.9h0Z"/><path class="cls-84" d="M1121.6,111.3c.1-.1.2-.1.2-.2h-.1l-.3.2Z"/><path class="cls-84" d="M1123.7,111.8Z"/><path class="cls-84" d="M1123.8,111.8h0Z"/><path class="cls-84" d="M1121.6,111.3h.5a.1.1,0,0,1,.1-.1h-.4C1121.8,111.2,1121.7,111.2,1121.6,111.3Z"/><path class="cls-84" d="M1123.7,111.6h.8l.5-.3h-.5Z"/><polygon class="cls-84" points="1124.2 111.5 1124.2 111.5 1124.2 111.5 1124.2 111.5"/><polygon class="cls-84" points="1124 111.6 1124 111.6 1124 111.6 1124 111.6 1124 111.6"/><path class="cls-84" d="M1122.3,111.1h-.1a.1.1,0,0,0-.1.1h.1C1122.2,111.2,1122.2,111.1,1122.3,111.1Z"/><path class="cls-84" d="M1124.3,111.3h-.6l.8-.3h-.2Z"/><path class="cls-84" d="M1124.3,111.3h0Z"/><path class="cls-84" d="M1123.6,111.5h0Z"/><path class="cls-84" d="M1122.9,111.3h.7l-.5-.4h-.1C1122.9,111.2,1123,111.3,1122.9,111.3Z"/><path class="cls-84" d="M1122.7,111.2a.3.3,0,0,1,.1-.2h-.5c-.1,0-.1.1-.1.2Z"/><path class="cls-84" d="M1122.7,111.2h.2c.1,0,0-.1.1-.3h-.2A.3.3,0,0,0,1122.7,111.2Z"/><path class="cls-91" d="M1119.5,112.6h.1l.7-.4h-.1Z"/><path class="cls-92" d="M1118.6,113.4l.5-.4h-.1l-.8.6h0Z"/><path class="cls-86" d="M1117.3,114.7v-.3h0a.1.1,0,0,1,.1-.1l-.5.2-1.2.7,1.5-.2h.2C1117.3,114.8,1117.2,114.8,1117.3,114.7Z"/><path class="cls-86" d="M1121.1,111.9h.2c0-.2.1-.3.2-.5a.1.1,0,0,0,.1-.1h-.2l-.5.4Z"/><path class="cls-86" d="M1121.3,111.9h.8c-.2-.1-.3-.3-.1-.5h-.4a.1.1,0,0,1-.1.1C1121.4,111.6,1121.3,111.7,1121.3,111.9Z"/><path class="cls-86" d="M1122.1,111.8h.1l.2-.2h0c-.3,0-.3-.1-.2-.3h-.2C1121.8,111.5,1121.9,111.7,1122.1,111.8Z"/><path class="cls-86" d="M1123.1,111.4h-.9c-.1.2-.1.3.2.3h.1Z"/><path class="cls-86" d="M1122.7,111.2h0Z"/><path class="cls-93" d="M1125.2,111.5h-1.1l-.4.2h-.2l-.2.3h.1c.4,0,.4.1.4.2h.1a2.3,2.3,0,0,1,1.4-.7c.5-.1.6.2.3.6a2.8,2.8,0,0,1-1.6.9h-.6l-.4.3h.6a7.2,7.2,0,0,0,3.4-1.4C1126.5,111.3,1125.2,111.5,1125.2,111.5Z"/><path class="cls-93" d="M1124,111.6Z"/><path class="cls-93" d="M1123.7,111.8h0l.4-.2h-.4Zm.3-.1Z"/><path class="cls-85" d="M1120.6,112.1h0Z"/><path class="cls-85" d="M1120.7,112.4l.6-.3h-.9c.1.1-.1.3-.1.3h.4Z"/><path class="cls-85" d="M1119,113.2h.1Z"/><path class="cls-85" d="M1121,111.9h0Z"/><path class="cls-85" d="M1123.4,111.9h0l-.6.4h-.1l.6-.2.2-.3h-.1Z"/><path class="cls-85" d="M1124.2,111.5Z"/><path class="cls-85" d="M1123.4,111.9h.6a.1.1,0,0,0-.1.1h-.4c0,.1-.1.1-.1.2Z"/><path class="cls-85" d="M1121.5,112.1h0Z"/><path class="cls-85" d="M1120.3,112.5h0s.2-.2.1-.3h-.1l-.7.4Z"/><path class="cls-85" d="M1120.4,112.1h0Z"/><path class="cls-85" d="M1119,113.2V113h0l-.5.4h.4Z"/><path class="cls-85" d="M1123.3,112.2h0l.2-.3Z"/><path class="cls-85" d="M1123.7,111.8h0Z"/><polygon class="cls-85" points="1124.2 111.5 1124.2 111.5 1124.2 111.5 1124.2 111.5"/><path class="cls-94" d="M1123.9,112.4h0l.2-.2.2-.2h.3c.1,0,.2,0,.2-.1h.3c.3-.1.4,0,.4.2s-.1.1-.1.2l-.2.2h-.1a1.6,1.6,0,0,1-.9.3c-.2.1-.3,0-.3-.2s-.1.2-.3.4h.4a2.8,2.8,0,0,0,1.6-.9c.3-.4.2-.7-.3-.6a2.3,2.3,0,0,0-1.4.7Z"/><path class="cls-95" d="M1125.1,112.4h0Z"/><path class="cls-95" d="M1124.5,112h0Z"/><path class="cls-95" d="M1124.8,111.8h0Z"/><path class="cls-95" d="M1124.3,112.1Z"/><path class="cls-95" d="M1124.2,112.8a1.6,1.6,0,0,0,.9-.3c0-.1.1-.1.1-.2s.2-.5-.2-.4l-.7.2-.2.2-.2.2h0C1123.9,112.8,1124,112.9,1124.2,112.8Z"/><path class="cls-95" d="M1125.5,112c0-.2-.1-.3-.4-.2S1125.5,111.8,1125.5,112Z"/><path class="cls-87" d="M1119.3,112.8h0l-.2.2h0l.2-.2Z"/><path class="cls-87" d="M1119.3,112.8l.3-.2h-.1a.2.2,0,0,1-.2.2Z"/><path class="cls-87" d="M1119.1,113h0Z"/><path class="cls-87" d="M1120.1,112.7h.3l.3-.2h-.4l-1,.3h0l-.2.2h.2l.6-.3Z"/><path class="cls-87" d="M1120.3,112.5h-.7l-.3.2Z"/><path class="cls-87" d="M1119.1,113Z"/><path class="cls-96" d="M1124.6,111.9c.1,0,.2,0,.2-.1S1124.7,111.9,1124.6,111.9Z"/><path class="cls-96" d="M1124.9,111.8h0Z"/><path class="cls-96" d="M1124.3,112.1Z"/><path class="cls-96" d="M1125.1,112.5h0Z"/><path class="cls-96" d="M1125.4,112.2l-.2.2Z"/><path class="cls-96" d="M1124.5,112h0Z"/><path class="cls-96" d="M1125,111.9c.4-.1.5.1.2.4s-.1.1-.1.2h.1l.2-.2c0-.1.1-.1.1-.2s-.1-.3-.4-.2h-.3c0,.1-.1.1-.2.1h-.3Z"/><path class="cls-97" d="M1127,112.1h0Z"/><path class="cls-97" d="M1124.2,111.5Z"/><path class="cls-97" d="M1123.8,111.7Z"/><path class="cls-97" d="M1125.2,111.5s1.3-.2,1.8.6h.1c-.4-.8-1.7-.7-1.7-.7l-.9.2h.7Z"/><path class="cls-97" d="M1124.1,111.6h0Z"/><path class="cls-97" d="M1124,111.6h0Z"/><path class="cls-97" d="M1124.1,111.6h0Z"/><path class="cls-97" d="M1124,111.6h0Z"/><polygon class="cls-85" points="1124 111.7 1124 111.7 1124 111.7 1124 111.7"/><path class="cls-87" d="M1120.6,112.1h0Z"/><path class="cls-87" d="M1124,111.6Z"/><path class="cls-87" d="M1120.3,112.2Z"/><path class="cls-87" d="M1124,111.6Z"/><path class="cls-87" d="M1120.4,112.2h0Z"/><path class="cls-87" d="M1121.7,112l.4-.2h-.4Z"/><path class="cls-87" d="M1123.5,111.6h.4a.1.1,0,0,1,.1-.1h-.5Z"/><path class="cls-87" d="M1123.5,111.6Z"/><path class="cls-87" d="M1120.4,112.1h0Z"/><path class="cls-87" d="M1121.1,111.9h0Z"/><path class="cls-87" d="M1122.1,111.8Z"/><path class="cls-87" d="M1122.2,111.8h0Z"/><polygon class="cls-87" points="1124 111.6 1124 111.6 1124 111.6 1124 111.6"/><path class="cls-87" d="M1124,111.6Z"/><path class="cls-87" d="M1124.1,111.6h0Z"/><polygon class="cls-87" points="1124 111.6 1124 111.6 1124 111.6 1124 111.6 1124 111.6"/><path class="cls-84" d="M1121.6,114.3l-1.3,1,.7-.5.3-.2,1.3-.7h-.6Z"/><path class="cls-84" d="M1120.7,116.9h0l1.1-.6a2.7,2.7,0,0,0,.8-.7c0-.1.1-.2,0-.3s-.2-.2-.5-.1l-1,.5-.8.7c-.1.2-.2.3-.2.5S1120.3,117.1,1120.7,116.9Zm0-.3h.1l.4-.4.5-.3h.2c0,.1,0,.1-.1.2h0l-.5.3c-.2.2-.3.3-.5.3h-.1Z"/><path class="cls-84" d="M1124.1,113.7l.2.2q.3.4-.3,1.2h0c0,.1-.1.1-.1.2l-.2.2a9.9,9.9,0,0,1-2,2.3l-.8.6h0a.3.3,0,0,1-.1.2h0c0,.3,0,.3.1.3h0c.4-.6.4-.7.5-.7l.3-.4h0a9.4,9.4,0,0,1,1-1,1.6,1.6,0,0,1,.9-.4h.1c.2,0,.3.1.3.4s0,.2,0,.4h0a1.4,1.4,0,0,1-.2.6h0a.5.5,0,0,1-.3.4h0a.7.7,0,0,1-.3.5,2.3,2.3,0,0,1-.9.4v-.2a1.2,1.2,0,0,0,.1-.5c.1-.2.1-.2.1-.3h0a2.8,2.8,0,0,0-.3.7h0l-.4.4h0a8.7,8.7,0,0,1-1.3,1.5c-.8.6-1.3.8-1.7.7s-.4-.4-.2-.9v-.3a1,1,0,0,1,.5-.6h.1l.3-.5h.2l-1.2.6c-1.1.3-1.6.2-1.5-.5a4.4,4.4,0,0,1,1.4-2.4h.3a.5.5,0,0,1,.2-.4l1-.8-.4.3-.6.5-.5.3c-.3.2-.6.3-.6.1v-.4c0-.1.2-.3.5-.5h.1l.4-.4.3-.2h0v-.4l-1.4.6h-.7c-.1.2.2.2.6.1l.4-.2h.2v.2l-.3.2c-.8.6-1.1,1-1.1,1.2h-.1v.4h0c-.1.2.1.3.4.3a8.6,8.6,0,0,0-1.5,2.2.4.4,0,0,1-.1.3c-.1,1,.5,1.2,1.9.8a.1.1,0,0,1-.1.1h0a1.1,1.1,0,0,0-.2.6.4.4,0,0,0-.1.3q-.3,1,.3,1.2c.6.2,1.7-.3,2.9-1.4s1-1,1.5-1.5a3.1,3.1,0,0,0,1.4-.9,3.2,3.2,0,0,0,1-1.3h.1a2.9,2.9,0,0,0,.2-.9h.1v-.7c-.1-.2-.2-.3-.4-.3h-.3l.4-.6a2.1,2.1,0,0,0,.4-1.5v-.2l-.2-.2Z"/><path class="cls-84" d="M1117.8,113.9l.4-.3Z"/><path class="cls-84" d="M1123.3,113.6l-.7.2.4-.3h-.5l-.5.4h1.2a1.4,1.4,0,0,1,.9,0h-.8Z"/><path class="cls-84" d="M1117.5,115.4h.3l1.4-.6h-.2l-.5.2h-.2c-.3.1-.3,0-.3,0v-.2h-.8c0,.1-.1.1-.1.2h0v.3Z"/><path class="cls-84" d="M1117.4,114.3l.8-.3v-.2l.2-.3h-.3l-.4.3C1117.6,114,1117.5,114.2,1117.4,114.3Z"/><path class="cls-84" d="M1123.4,111.6h0Z"/><path class="cls-84" d="M1123.1,111.4l.2.2h-.2Z"/><path class="cls-84" d="M1118.6,113.4l-.4.2h.4Z"/><path class="cls-84" d="M1118,114.8l.5-.5h-.4V114h0l-.8.3a.1.1,0,0,0-.1.1h0v.3c-.1.1,0,.1.1.2h.6Z"/><path class="cls-84" d="M1123.4,111.6h0Z"/><path class="cls-84" d="M1122.6,111.7h-.2l-.2.2h.4Z"/><path class="cls-84" d="M1122.7,111.6h.6l-.2-.2-.6.2h.1A.1.1,0,0,1,1122.7,111.6Z"/><path class="cls-84" d="M1123.4,113.2h.2c-.1-.1-.1-.4.2-.6s0-.1.1-.1h-.1c0-.1,0-.2-.4-.2h-.1l-.3.2h.5v.2c.1.1-.1.2-.2.3h0a.2.2,0,0,1-.2.2h0l-.7.6h.5Z"/><path class="cls-84" d="M1119.1,113.3l.4-.2h-.6l-.4.2-.2.3.3-.2Z"/><path class="cls-84" d="M1121.2,112.3l.4-.2h-.3l-.6.3h.5Z"/><path class="cls-84" d="M1122.1,112.5h-.4l-.8.4-1,.6h-.3l1-.4.8-.3,1.3-.5h.3l.3-.2-.6.2h.1l.6-.4h-.5l-.2.2A1.1,1.1,0,0,0,1122.1,112.5Z"/><path class="cls-84" d="M1122,111.9h-.4Z"/><path class="cls-84" d="M1123.2,111.8h.2c0-.1.1-.1.1-.2Z"/><path class="cls-84" d="M1119,113.2h-.5l.4-.2Z"/><polygon class="cls-84" points="1119.6 113.7 1119.6 113.7 1119.6 113.7 1119.6 113.7"/><path class="cls-84" d="M1123,112.4h0l.3-.2h0Z"/><path class="cls-84" d="M1123.6,113c.2-.2.3-.3.3-.4h0c-.1,0-.1,0-.1.1S1123.5,112.9,1123.6,113Z"/><path class="cls-84" d="M1123.9,112.5h0Z"/><path class="cls-84" d="M1121.7,112.6h0Z"/><path class="cls-84" d="M1120.2,112.8l.7-.4h-.2l-.3.2h-.5l-.6.3h.2l.5-.2Z"/><path class="cls-84" d="M1122,111.9h.1l-.4.2Z"/><path class="cls-84" d="M1123.2,111.7h0Z"/><path class="cls-84" d="M1123.4,111.6h0Z"/><path class="cls-84" d="M1122.4,111.8h0Z"/><path class="cls-84" d="M1122.1,111.8Z"/><path class="cls-84" d="M1123.2,111.6Z"/><path class="cls-84" d="M1122.1,111.8h0Z"/><path class="cls-85" d="M1118.4,113.8h-.1v.2l.3-.2Z"/><path class="cls-85" d="M1119,114l.3-.2h-.1a.1.1,0,0,0-.1.1h-.5s-.1,0,0-.1h-.1l-.3.2h0v.3h.5Z"/><path class="cls-85" d="M1118.5,113.8h.1l-.3.2h.2Z"/><path class="cls-85" d="M1119.9,113.6l1-.6.8-.4h-.5l-1,.5-.3.2-.6.2h.6Z"/><path class="cls-85" d="M1122.1,112.3l-.3.2h.3a1.1,1.1,0,0,1,.6-.3l.2-.2h-.2Z"/><path class="cls-85" d="M1122.9,112h0Z"/><path class="cls-85" d="M1119.6,113.7h0Z"/><path class="cls-85" d="M1118.5,113.8h0Z"/><path class="cls-85" d="M1121.7,112.6h.1l-.5.2Z"/><path class="cls-86" d="M1122.8,111.7Z"/><path class="cls-86" d="M1122.8,111.7c0-.1,0-.1-.1-.1a.1.1,0,0,0-.1.1Z"/><path class="cls-86" d="M1121.1,112.5l.3-.2h.3a.1.1,0,0,1-.1-.1h0l-.4.2h-.1Z"/><path class="cls-86" d="M1121.6,112.1h0a.1.1,0,0,0,.1.1h.1l.5-.2h-.3Z"/><path class="cls-86" d="M1120.4,112.8h-.1l.8-.3h-.2l-.7.4h-.3Z"/><path class="cls-86" d="M1122.5,111.8h0Z"/><path class="cls-86" d="M1122.5,111.8h0Z"/><path class="cls-86" d="M1122.8,111.7h0Z"/><path class="cls-86" d="M1122.8,111.7Z"/><path class="cls-86" d="M1122.8,111.7Z"/><path class="cls-86" d="M1121.2,112.8h.1l-1.2.3h-.3v.3h.1l.3-.2Z"/><path class="cls-86" d="M1121.7,112.2h0Z"/><path class="cls-86" d="M1122,112.2h-.3l-.4.2h.5l.3-.2.6-.2Z"/><path class="cls-86" d="M1119.9,113Z"/><path class="cls-86" d="M1122.9,111.9l-.9.3h.9Z"/><path class="cls-86" d="M1122.3,111.9h0l-.5.2h-.1Z"/><path class="cls-86" d="M1120.5,112.8h-.1l-.5.2h.1Z"/><path class="cls-86" d="M1121.3,112.5l-.7.3-.5.2,1.2-.3.5-.2Z"/><path class="cls-86" d="M1122.3,111.9h0Z"/><path class="cls-86" d="M1122.9,111.8Z"/><path class="cls-86" d="M1122.9,111.8Z"/><path class="cls-86" d="M1122.7,111.7h0Z"/><path class="cls-86" d="M1122.8,111.7h0Z"/><path class="cls-87" d="M1119.9,113h-.4l-.4.2-.5.3h.1Z"/><path class="cls-87" d="M1119.9,113h.1l-.5.2h.4Z"/><path class="cls-87" d="M1118.6,113.8h0c-.1.1,0,.1,0,.1h.5a.1.1,0,0,1,.1-.1Z"/><path class="cls-87" d="M1119.3,113.7l.6-.2h-.1v-.3h0l-.9.5c.1-.2,0-.1,1-.6h0l-1.2.6h.6Z"/><path class="cls-87" d="M1118.7,113.8h0Z"/><path class="cls-87" d="M1119.9,113Z"/><path class="cls-87" d="M1122.8,111.7h0Z"/><path class="cls-87" d="M1123.2,111.6h-.5c.1,0,.1,0,.1.1Z"/><path class="cls-87" d="M1123,111.8h0Z"/><path class="cls-87" d="M1123,111.8Z"/><path class="cls-87" d="M1122.9,111.7h0Z"/><path class="cls-87" d="M1122.8,111.7Z"/><path class="cls-87" d="M1123,111.8h0Z"/><path class="cls-87" d="M1122.9,111.8Z"/><path class="cls-87" d="M1122.9,111.8h0Z"/><path class="cls-87" d="M1122.9,111.7Z"/><path class="cls-86" d="M1121.4,112.3l-.3.2h0Z"/><path class="cls-98" d="M1121.4,112.3l-.3.2h0Z"/><path class="cls-86" d="M1121.1,112.5h0l-.8.3h.1l.5-.2Z"/><path class="cls-99" d="M1121.1,112.5h0l-.8.3h.1l.5-.2Z"/><path class="cls-86" d="M1121.3,112.5l.4-.2h-.3l-.3.2Z"/><path class="cls-100" d="M1121.3,112.5l.4-.2h-.3l-.3.2Z"/><path class="cls-86" d="M1122,112.2l.9-.3h-.6l-.6.3Z"/><path class="cls-101" d="M1122,112.2l.9-.3h-.6l-.6.3Z"/><path class="cls-86" d="M1120.6,112.8l.7-.3h-.4l-.5.2h.2C1120.7,112.7,1120.6,112.7,1120.6,112.8Z"/><path class="cls-102" d="M1120.6,112.8l.7-.3h-.4l-.5.2h.2C1120.7,112.7,1120.6,112.7,1120.6,112.8Z"/><path class="cls-86" d="M1122.9,111.8h0Z"/><path class="cls-103" d="M1122.9,111.8h0Z"/><path class="cls-86" d="M1122.8,111.7h0Z"/><path class="cls-104" d="M1122.8,111.7h0Z"/><path class="cls-86" d="M1122.7,111.7h0Z"/><path class="cls-105" d="M1122.7,111.7h0Z"/><path class="cls-86" d="M1120,113h0Z"/><path class="cls-106" d="M1120,113h0Z"/><path class="cls-86" d="M1120.6,112.8h-.1l-.5.2h.1Z"/><path class="cls-107" d="M1120.6,112.8h-.1l-.5.2h.1Z"/><path class="cls-87" d="M1118.9,113.6l.9-.5h.1C1118.9,113.5,1119,113.4,1118.9,113.6Z"/><path class="cls-108" d="M1118.9,113.6l.9-.5h.1C1118.9,113.5,1119,113.4,1118.9,113.6Z"/><path class="cls-86" d="M1120.6,112.7h0C1120.6,112.7,1120.7,112.7,1120.6,112.7Z"/><path class="cls-109" d="M1120.6,112.7h0C1120.6,112.7,1120.7,112.7,1120.6,112.7Z"/><path class="cls-110" d="M1120.6,112.7h0C1120.6,112.7,1120.7,112.7,1120.6,112.7Z"/><path class="cls-85" d="M1120.8,114.8c-.3.2-.5.5-.8.6l-.6.5-.4.3c-.3.2-.6.3-.6.1v-.4a.1.1,0,0,0,.1-.1h-.1c-.3.2-.5.4-.5.5v.4c0,.2.3.1.6-.1l.5-.3.6-.5.4-.3.3-.3,1.3-1,.4-.3h-.1Z"/><path class="cls-85" d="M1119.7,114.9v-.4l-.4.2v.4h.2Z"/><path class="cls-85" d="M1121.9,113.9h.1l.5-.4h-.1Z"/><path class="cls-85" d="M1121.2,113.7h0l.2-.2Z"/><path class="cls-85" d="M1119.6,114.5v-.2c0,.1-.1.1-.2.1l-.5.2h-.4l-.3.2h-.2v.2s0,.1.3,0h.2l.5-.2h.2l.4-.2Z"/><path class="cls-85" d="M1118.5,114.7h0v-.3h0l-.5.5h.2Z"/><path class="cls-85" d="M1123.2,113h0a.2.2,0,0,0,.2-.2l-1,.8h.1Z"/><path class="cls-85" d="M1121.6,113.5l-.4.2h.4Z"/><path class="cls-86" d="M1120.9,114.1Z"/><path class="cls-86" d="M1121.3,113.8h0l-.4.2h0Z"/><path class="cls-86" d="M1122.9,112.6v0Z"/><path class="cls-86" d="M1123.4,112.7Z"/><path class="cls-86" d="M1122.9,112.6l.3-.2h-.2Z"/><polygon class="cls-86" points="1123.4 112.6 1123.4 112.6 1123.4 112.6 1123.4 112.6"/><path class="cls-86" d="M1122.7,112.5l-1.3.5-.8.3-.2.3.3-.2h-.1l2.3-.9v-.2h-.3Z"/><path class="cls-86" d="M1123,112.4Z"/><path class="cls-86" d="M1121.6,114h-.9l-.7.3c0,.1-.1.2,0,.2s.1.2.3.3.8-.6.7-.6l-.6.6h.4l1.1-.8Z"/><path class="cls-86" d="M1122.6,112.9Z"/><path class="cls-86" d="M1122.1,113.6h-.7l-.2.2h-.1l-1.1.4v.3l.7-.3h.2l.4-.2h0l-.4.3h1l.5-.3Z"/><path class="cls-86" d="M1122.1,113.5Z"/><path class="cls-86" d="M1122.2,113.4Z"/><path class="cls-86" d="M1122.5,113h0Z"/><path class="cls-86" d="M1122.1,113.6Z"/><path class="cls-86" d="M1122.3,113.2h0Z"/><path class="cls-86" d="M1120.3,113.7l-.3.4,1.1-.4Z"/><path class="cls-86" d="M1123.4,112.7l-.8.2h-.2a.1.1,0,0,0-.1.1h.1l1-.8Z"/><path class="cls-86" d="M1122.3,113l-1.6.4-.3.2a.1.1,0,0,0-.1.1h.9l.4-.2h.7a.1.1,0,0,1,.1-.1h-.1Z"/><path class="cls-86" d="M1121.1,113.7h0Z"/><path class="cls-86" d="M1122.2,113.4h0Z"/><path class="cls-86" d="M1122.6,112.9h0Z"/><path class="cls-86" d="M1122.1,113.6h0Z"/><path class="cls-86" d="M1122.3,113.2a.1.1,0,0,1,.1-.1A.1.1,0,0,0,1122.3,113.2Z"/><path class="cls-86" d="M1122.2,113.3h0Z"/><path class="cls-86" d="M1122.1,113.6Z"/><path class="cls-87" d="M1119.3,115.3h-.1l-.3.2-.4.4.5-.3Z"/><path class="cls-87" d="M1118.9,114.2l1.1-.5h-.5l-.9.4h.3Z"/><path class="cls-87" d="M1120.6,113.3l-1,.4h.8Z"/><path class="cls-87" d="M1120.1,113.7h0Z"/><path class="cls-87" d="M1119.5,113.8h-.2l-.3.2-.4.2h0Z"/><path class="cls-87" d="M1119.5,113.8Z"/><path class="cls-87" d="M1118.4,116.3c0,.2.3.1.6-.1l.4-.3.6-.5c.3-.1.5-.4.8-.6h-.4c-1.5,1.1-1.4,1.1-1.3.8l.9-.6.3-.2c-.2-.1-.3-.1-.3-.3s0-.1,0-.2h-.4v.4l-.3.2h-.1l-.3.2-.5.3a.1.1,0,0,1-.1.1Z"/><path class="cls-87" d="M1120,114.1l-1.5.6h.4l.5-.2c.1,0,.2,0,.2-.1v.2h.4Z"/><path class="cls-87" d="M1118.5,114.7h0l1.5-.6.3-.4h-.3l-1.1.5h-.4Z"/><path class="cls-87" d="M1120.1,113.7h.2a.1.1,0,0,1,.1-.1Z"/><path class="cls-87" d="M1120.1,113.7h0Z"/><path class="cls-87" d="M1123.2,112.4l.2.2h0c.1-.1.3-.2.2-.3v-.2h-.3Z"/><path class="cls-86" d="M1122.8,112.6Z"/><path class="cls-111" d="M1122.8,112.6Z"/><path class="cls-86" d="M1122.8,112.6h.5v.2h0l-.2-.2-.3.2Z"/><path class="cls-112" d="M1122.8,112.6h.5v.2h0l-.2-.2-.3.2Z"/><path class="cls-86" d="M1122.5,112.8h0l.3-.2h.1l-2.3.9h.5Z"/><path class="cls-113" d="M1122.5,112.8h0l.3-.2h.1l-2.3.9h.5Z"/><path class="cls-86" d="M1122.8,112.6Z"/><path class="cls-114" d="M1122.8,112.6Z"/><path class="cls-86" d="M1122.6,112.9h0c0-.1,0-.1.1-.1S1122.6,112.8,1122.6,112.9Z"/><path class="cls-115" d="M1122.6,112.9h0c0-.1,0-.1.1-.1S1122.6,112.8,1122.6,112.9Z"/><path class="cls-86" d="M1122.9,112.6h-.2c-.1,0-.1,0-.1.1l.8-.2v-.2Z"/><path class="cls-116" d="M1122.9,112.6h-.2c-.1,0-.1,0-.1.1l.8-.2v-.2Z"/><path class="cls-86" d="M1122.3,113h.3c0-.1,0-.1.1-.1h.1l-.3.2h0l-1.4.5h-.4Z"/><path class="cls-117" d="M1122.3,113h.3c0-.1,0-.1.1-.1h.1l-.3.2h0l-1.4.5h-.4Z"/><path class="cls-86" d="M1122.8,112.7h0Z"/><path class="cls-118" d="M1122.8,112.7h0Z"/><path class="cls-87" d="M1123.4,112.6l-.2-.2Z"/><path class="cls-119" d="M1123.4,112.6l-.2-.2Z"/><path class="cls-87" d="M1123.4,112.6Z"/><path class="cls-120" d="M1123.4,112.6Z"/><path class="cls-86" d="M1120.3,114.9h.1l.6-.6C1121.1,114.3,1121,114.4,1120.3,114.9Z"/><path class="cls-121" d="M1120.3,114.9h.1l.6-.6C1121.1,114.3,1121,114.4,1120.3,114.9Z"/><path class="cls-87" d="M1120.3,114.9l-.3.2-.9.6c-.1.3-.2.3,1.3-.8Z"/><path class="cls-122" d="M1120.3,114.9l-.3.2-.9.6c-.1.3-.2.3,1.3-.8Z"/><path class="cls-85" d="M1122.1,115.2c.3-.1.5-.1.5.1s0,.2,0,.3h.1c.2-.3.3-.5.2-.6s-.2-.2-.5-.1l-.9.5a3.9,3.9,0,0,0-1,.8h0l-.2.3.8-.7Z"/><path class="cls-85" d="M1122.1,117.3h-.1a9.5,9.5,0,0,1-2.8,1.7c-1,.3-1.5.2-1.5-.4a3,3,0,0,1,1.1-1.8h-.3a4.4,4.4,0,0,0-1.4,2.4c-.1.7.4.8,1.5.5l1.2-.6.7-.6c.2-.1.3-.2.4-.1l.8-.6a9.9,9.9,0,0,0,2-2.3l.2-.2A10.2,10.2,0,0,1,1122.1,117.3Z"/><path class="cls-86" d="M1121,114.8c0,.1-.1.2-.1.3h.1a7.5,7.5,0,0,1,2-1c.6-.1.9,0,1.1.2h0a.9.9,0,0,0-.6-.4h-.9l-1.3.7Z"/><path class="cls-86" d="M1120,117.2c.1.2.1.3.3.3h0a2.8,2.8,0,0,0,1.1-.7,4.5,4.5,0,0,0,1-.9h0l.2-.3a2.7,2.7,0,0,1-.8.7l-1.1.6h0c-.4.2-.5.1-.6,0s.1-.3.2-.5-.1.2-.2.2h0c0,.1-.1.1-.1.2Z"/><path class="cls-86" d="M1124.2,114.6a4.1,4.1,0,0,1-.3.8c0-.1.1-.1.1-.2h0A.8.8,0,0,0,1124.2,114.6Z"/><path class="cls-86" d="M1124.1,114.3v0Z"/><path class="cls-86" d="M1123.1,113.9h0Z"/><path class="cls-86" d="M1124.1,114.5v-.2h0c-.2-.2-.5-.3-1.1-.2a7.5,7.5,0,0,0-2,1h-.1l-.3.3.5-.3-.6.4a6.9,6.9,0,0,0-.5,1.3c0-.1.1-.1.1-.2h0c.1,0,.1-.1.2-.2l.2-.3h0a3.9,3.9,0,0,1,1-.8l.9-.5c.3-.1.5,0,.5.1s0,.3-.2.6h-.1l-.2.3h0a4.5,4.5,0,0,1-1,.9,2.8,2.8,0,0,1-1.1.7h.2c-.5-.1,2.6-.9,3.2-3.3,0,0,.6.2-.2,1.2a5.5,5.5,0,0,1-2.1,1.9l.5-.2h.2a10.2,10.2,0,0,0,1.8-1.9,4.1,4.1,0,0,0,.3-.8Z"/><path class="cls-87" d="M1120.2,117.5h.1c-.2,0-.2-.1-.3-.3v-.4c-.2.2-.4.5-.3.6S1119.9,117.6,1120.2,117.5Z"/><path class="cls-87" d="M1120.9,115.1c0-.1.1-.2.1-.3l-.7.5-.3.3-1,.8a.5.5,0,0,0-.2.4A6.8,6.8,0,0,1,1120.9,115.1Z"/><path class="cls-87" d="M1120,115.6l.3-.3Z"/><path class="cls-87" d="M1119.2,119a9.5,9.5,0,0,0,2.8-1.7h-.1l-.5.2-.7.2h-.5c-.3.1-.5.1-.5-.1s.1-.4.3-.6a6.9,6.9,0,0,1,.5-1.3c-2.6,2.4-.6,2.2-.9,2.4s-1.2.1-.6-.8a6.6,6.6,0,0,1,1.6-1.7l.3-.3a6.8,6.8,0,0,0-2.1,1.7,3,3,0,0,0-1.1,1.8C1117.7,119.2,1118.2,119.3,1119.2,119Z"/><path class="cls-87" d="M1124.1,114.2h0v.2h.1a.8.8,0,0,1-.2.5q.6-.7.3-1.2l-.2-.2h-.6A.9.9,0,0,1,1124.1,114.2Z"/><path class="cls-87" d="M1123.5,113.8h.6a1.4,1.4,0,0,0-.9,0h.3Z"/><path class="cls-87" d="M1124.1,114.2Z"/><path class="cls-87" d="M1124.1,114.5h0Z"/><path class="cls-86" d="M1121.4,117.4a5.5,5.5,0,0,0,2.1-1.9c.8-1,.2-1.2.2-1.2-.6,2.4-3.7,3.2-3.2,3.3h.2Z"/><path class="cls-123" d="M1121.4,117.4a5.5,5.5,0,0,0,2.1-1.9c.8-1,.2-1.2.2-1.2-.6,2.4-3.7,3.2-3.2,3.3h.2Z"/><path class="cls-87" d="M1121.4,117.4l-.7.2Z"/><path class="cls-124" d="M1121.4,117.4l-.7.2Z"/><path class="cls-86" d="M1121.1,115.1l-.5.3h-.1Z"/><path class="cls-125" d="M1121.1,115.1l-.5.3h-.1Z"/><path class="cls-87" d="M1119,117.1c-.6.9.1,1.3.6.8s-1.7,0,.9-2.4h.1A6.6,6.6,0,0,0,1119,117.1Z"/><path class="cls-126" d="M1119,117.1c-.6.9.1,1.3.6.8s-1.7,0,.9-2.4h.1A6.6,6.6,0,0,0,1119,117.1Z"/><path class="cls-85" d="M1123.5,118.4c-.3.2-.7.5-.9.4v-.2l.2-.4v-.3c.1-.1,0-.1-.1,0v.2h-.1c0,.1,0,.1-.1.3a1.2,1.2,0,0,1-.1.5v.2a2.3,2.3,0,0,0,.9-.4.7.7,0,0,0,.3-.5Z"/><path class="cls-85" d="M1121.2,118.9l.5-.8-.3.4c-.1,0-.1.1-.5.7h.1Z"/><path class="cls-85" d="M1120.9,120.4h0c-.7.5-1.2.8-1.6.7s-.3-.4-.2-.9.1-.2.1-.3a.1.1,0,0,1,.1-.1h-.1a1,1,0,0,0-.5.6v.3c-.2.5-.1.8.2.9s.9-.1,1.7-.7a8.7,8.7,0,0,0,1.3-1.5h0A2.8,2.8,0,0,1,1120.9,120.4Z"/><path class="cls-86" d="M1122.4,118.3a.3.3,0,0,1-.1.2c-.4.8-.4.9-.5.9l.4-.4h0a2.8,2.8,0,0,1,.3-.7Z"/><path class="cls-86" d="M1120.6,119.7l.2-.3v-.2h0c-.1,0-.1,0-.1-.3h0a.3.3,0,0,0,.1-.2h0a7.6,7.6,0,0,0-.4,1.1Z"/><path class="cls-86" d="M1122.4,117.4l.6-.4.7-.2c.2,0,.1.6.1.8h0c0-.2.1-.4,0-.6a.8.8,0,0,0-.2-.5,1.6,1.6,0,0,0-.9.4,9.4,9.4,0,0,0-1,1h0Z"/><path class="cls-86" d="M1120.6,119.7h-.1c0,.2,0,.3.1.4l.6-.4-.6.5h.3a2.8,2.8,0,0,0,.9-1c.1,0,.1-.1.5-.9a.3.3,0,0,0,.1-.2h.2v-.2c.1-.1.2-.1.1,0v.3l-.2.4v.2c.2.1.6-.2.9-.4l.3-.7h0c-.1,0-.2-.4-.4-.4s-.9.6-.9.3a1.2,1.2,0,0,1,.5-.6l-.6.4-.7.7-.5.8-.2.3h-.1v.2Z"/><path class="cls-87" d="M1119.8,119.2h-.2l-.3.5a4.4,4.4,0,0,1,.8-.7c.3-.2.4-.2.4,0v.2h-.1c0,.3,0,.3.1.4h0a7.6,7.6,0,0,1,.4-1.1h0Z"/><path class="cls-87" d="M1120.5,118.6l-.7.6,1.1-.7C1120.8,118.4,1120.7,118.5,1120.5,118.6Z"/><path class="cls-87" d="M1119.1,120.2c-.1.5-.1.8.2.9s.9-.2,1.6-.7h-.3a2.1,2.1,0,0,1-1,.4c-.4-.2,0-1,.2-1.2s-.8,1.6.8.7c-.1-.1-.1-.2-.1-.4h0c-.1-.1-.1-.1-.1-.4h.1v-.2c0-.2-.1-.2-.4,0a4.4,4.4,0,0,0-.8.7.1.1,0,0,0-.1.1C1119.2,120,1119.1,120.1,1119.1,120.2Z"/><path class="cls-87" d="M1123.8,117.7h-.1a1.4,1.4,0,0,1-.2.6.5.5,0,0,0,.3-.4h0a1.4,1.4,0,0,0,.2-.6h0c0-.2.1-.3,0-.4s-.1-.4-.3-.4h-.1a.8.8,0,0,1,.2.5C1123.9,117.3,1123.8,117.5,1123.8,117.7Z"/><path class="cls-87" d="M1123.7,117.8h.1l-.3.7h0a1.4,1.4,0,0,0,.2-.6Z"/><path class="cls-86" d="M1123.7,116.8l-.7.2h.4c.3,0,.4.2.4.5v.2C1123.8,117.4,1123.9,116.8,1123.7,116.8Z"/><path class="cls-127" d="M1123.7,116.8l-.7.2h.4c.3,0,.4.2.4.5v.2C1123.8,117.4,1123.9,116.8,1123.7,116.8Z"/><path class="cls-86" d="M1123.4,116.9h-.4a1.2,1.2,0,0,0-.5.6c0,.3.4-.2.9-.3s.3.4.4.4h0v-.2C1123.8,117.1,1123.7,116.9,1123.4,116.9Z"/><path class="cls-128" d="M1123.4,116.9h-.4a1.2,1.2,0,0,0-.5.6c0,.3.4-.2.9-.3s.3.4.4.4h0v-.2C1123.8,117.1,1123.7,116.9,1123.4,116.9Z"/><path class="cls-86" d="M1120.6,120.3l.6-.5-.6.4Z"/><path class="cls-129" d="M1120.6,120.3l.6-.5-.6.4Z"/><path class="cls-87" d="M1119.8,119.5c-.2.2-.6,1-.2,1.2a2.1,2.1,0,0,0,1-.4h0C1119,121.1,1120,119.3,1119.8,119.5Z"/><path class="cls-130" d="M1119.8,119.5c-.2.2-.6,1-.2,1.2a2.1,2.1,0,0,0,1-.4h0C1119,121.1,1120,119.3,1119.8,119.5Z"/><path class="cls-131" d="M916.2,221.5c0,3-31.4,5.3-70.1,5.3s-70.2-2.3-70.2-5.3,31.4-5.3,70.2-5.3S916.2,218.6,916.2,221.5Z"/><path class="cls-132" d="M850.8,179.3c0,2.6-2.1,39.5-4.7,39.5s-4.8-36.9-4.8-39.5a4.8,4.8,0,1,1,9.5,0Z"/><path class="cls-133" d="M867.8,89.8c-1.3-14.3-3.7-27.9-7-36.4-5,.1-14.8,4.1-14.8,4.1s-9.7-4-14.7-4.1c-3.3,8.5-5.7,22.1-7,36.4s1.8,91.5,2.3,97.8,19.4,6.3,19.5,6.3,17.9.3,19.4-6.3S869.1,104.1,867.8,89.8Z"/><path class="cls-134" d="M846.1,29.5H846c-1.3,1.8-8.9,5.5-14.7,23.9C833,57,846,57.5,846,57.5s13.1-.5,14.8-4.1C855,35,847.4,31.3,846.1,29.5Z"/><path class="cls-135" d="M825,113.9c0,2.6,1.9,71.7,4.6,71.7s3.1-69.3,3.1-71.9a4.7,4.7,0,0,0-4.8-4.8C825.3,108.9,825,111.2,825,113.9Z"/><path class="cls-136" d="M794.8,211.6l34.8-29.9V114.8a1.7,1.7,0,0,0-3.3-.5l-31.5,67.8Z"/><path class="cls-137" d="M867.1,113.9c0,2.6-2,71.7-4.6,71.7s-3.2-69.3-3.2-71.9a4.8,4.8,0,0,1,4.8-4.8C866.8,108.9,867.1,111.2,867.1,113.9Z"/><path class="cls-138" d="M897.3,211.6l-34.8-29.9V114.8a1.7,1.7,0,0,1,3.3-.5l31.5,67.8Z"/><path class="cls-139" d="M799.4,183.2c0,2.6-2.1,39.5-4.8,39.5s-4.8-36.9-4.8-39.5a4.8,4.8,0,0,1,4.8-4.8A4.7,4.7,0,0,1,799.4,183.2Z"/><path class="cls-140" d="M902.2,183.2c0,2.6-2.1,39.5-4.7,39.5s-4.8-36.9-4.8-39.5a4.8,4.8,0,1,1,9.5,0Z"/><circle class="cls-141" cx="846.1" cy="83" r="16.2"/><circle class="cls-142" cx="846.1" cy="82.4" r="14.4"/><path class="cls-143" d="M836.9,86c.2-.5,0-.6.4-.9s.7-.7.7-1,.2-.6.4-.7.1-.2.2-.4a.4.4,0,0,1,.1-.3h.1c.1-.1.1-.2.2-.2s.1-.2.2-.3a3.3,3.3,0,0,1,1.1-1l.3-.2c0,.1-.1.1,0-.2a1.4,1.4,0,0,1,.7-.6c0-.6-.1-2-.1-2.4s0-.6.5-.7l1.3-.2a2.7,2.7,0,0,1,.7-.8,4.2,4.2,0,0,1,3.8-.1l.5.4h2c0,.2.3,2.6.3,2.8v1l.3.2a.3.3,0,0,0,.1.2h.1l.2-.2h.4s.1.1,0,.1h-.1l.4.3h.3c-.1,0,0-.1,0-.1h.6v.2h0c-.1,0-.1,0-.1.1h0a2.4,2.4,0,0,0,.8.6c.1-.2.1-.4.2-.6l-.4-.3c0-.2-.1-.4.1-.5h.5v-.2h-.2v-.2a.7.7,0,0,1,.6-.3h.5a1.6,1.6,0,0,1,.7,0,3.7,3.7,0,0,1,1.5.8c.3.4.4.4.3.6h0l.3.4v-.2a11.5,11.5,0,0,0-22.9,0,11.8,11.8,0,0,0,2.1,6.6v-.6A2.1,2.1,0,0,1,836.9,86Z"/><path class="cls-144" d="M857,84.2h-.5a.4.4,0,0,1-.1.3.9.9,0,0,0-.3.5,1.5,1.5,0,0,1-1.1.7,2.2,2.2,0,0,1-1.3.2s-.2,0-.5-.3l-1-.2c-.1,0-.6.2-.7-.1l-.7-.4h-.1c-.1.3-.2.1-.4.6a.4.4,0,0,0-.1.3h0l-.2.6h0c0,.1-.1.1,0,.1v.3h0a6.4,6.4,0,0,1,.2.9h0v.3h0v.3h0l.3.8h0a3.1,3.1,0,0,1,.2.8,11.1,11.1,0,0,0,6.4-7.7C857.1,84.2,857.1,84.2,857,84.2Z"/><path class="cls-145" d="M841.7,91.2v-.7c0-.1.1-.1.1-.2a1.2,1.2,0,0,1,.2-.7,1,1,0,0,0,.1-.4c0-.1,0-.1-.1-.2v-.9a1.6,1.6,0,0,1-.3-.6h-.1a.3.3,0,0,0-.1-.2V87h-.1c0-.2-.1-.3-.1-.4h0c-.1,0-.1-.1-.1-.2H841v.2c-.3.1-.6.1-.7.3a1,1,0,0,0-.2.7c0,.5.2,1,.2,1.3a2.6,2.6,0,0,0,.4,1,5,5,0,0,1,.2,1.7h0v.3h.1l.5.3c0-.1.1-.2.1-.3A.8.8,0,0,1,841.7,91.2Z"/><path class="cls-146" d="M846.3,92.5H846l-.2.4h.6A.3.3,0,0,0,846.3,92.5Z"/><path d="M857.1,81.2h0c.1-.2,0-.2-.3-.6a3.7,3.7,0,0,0-1.5-.8,1.6,1.6,0,0,0-.7,0h-.5a.7.7,0,0,0-.6.3v.2h.2v.2h-.5c-.2.1-.1.3-.1.5l.4.3c-.1.2-.1.4-.2.6a2.4,2.4,0,0,1-.8-.6h0c0-.1,0-.1.1-.1h0v-.2H852s-.1.1,0,.1h-.3l-.4-.3h.1c.1,0,0-.1,0-.1H851l-.2.2h-.1a.3.3,0,0,1-.1-.2l-.3-.2v-1c0-.2-.3-2.6-.3-2.8h-2l-.5-.4a4.2,4.2,0,0,0-3.8.1,2.7,2.7,0,0,0-.7.8l-1.3.2c-.5.1-.5.3-.5.7s.1,1.8.1,2.4a1.4,1.4,0,0,0-.7.6c-.1.3,0,.3,0,.2l-.3.2a3.3,3.3,0,0,0-1.1,1c-.1.1-.2.2-.2.3s-.1.1-.2.2h-.1a.4.4,0,0,0-.1.3c-.1.2-.2.3-.2.4s-.3.4-.4.7-.5.7-.7,1-.2.4-.4.9a2.1,2.1,0,0,0-.2,1.4V88a11.5,11.5,0,0,0,4.3,3.6h-.1v-.3h0a5,5,0,0,0-.2-1.7,2.6,2.6,0,0,1-.4-1c0-.3-.2-.8-.2-1.3a1,1,0,0,1,.2-.7c.1-.2.4-.2.7-.3v-.2h.1c0,.1,0,.2.1.2h0c0,.1.1.2.1.4h.1v.2a.3.3,0,0,1,.1.2h.1a1.6,1.6,0,0,0,.3.6V89c.1.1.1.1.1.2a1,1,0,0,1-.1.4,1.2,1.2,0,0,0-.2.7c0,.1-.1.1-.1.2v.7a.8.8,0,0,0-.1.4c0,.1-.1.2-.1.3a12.2,12.2,0,0,0,4.3.9h0l.2-.4h.3a.3.3,0,0,1,.1.2h0a12.3,12.3,0,0,0,4.3-1,3.1,3.1,0,0,0-.2-.8h0l-.3-.8h0v-.3h0v-.3h0a6.4,6.4,0,0,0-.2-.9h0v-.3c-.1,0,0,0,0-.1h0l.2-.6h0a.4.4,0,0,1,.1-.3c.2-.5.3-.3.4-.6h.1l.7.4c.1.3.6.1.7.1l1,.2c.3.3.5.3.5.3a2.2,2.2,0,0,0,1.3-.2,1.5,1.5,0,0,0,1.1-.7.9.9,0,0,1,.3-.5.4.4,0,0,0,.1-.3h.5c.1,0,.1,0,.1-.1a10.1,10.1,0,0,0,.3-2.5Z"/><path class="cls-147" d="M857.1,81.2h0c.1-.2,0-.2-.3-.6a3.7,3.7,0,0,0-1.5-.8,1.6,1.6,0,0,0-.7,0h-.5a.7.7,0,0,0-.6.3v.2h.2v.2h-.5c-.2.1-.1.3-.1.5l.4.3c-.1.2-.1.4-.2.6a2.4,2.4,0,0,1-.8-.6h0c0-.1,0-.1.1-.1h0v-.2H852s-.1.1,0,.1h-.3l-.4-.3h.1c.1,0,0-.1,0-.1H851l-.2.2h-.1a.3.3,0,0,1-.1-.2l-.3-.2v-1c0-.2-.3-2.6-.3-2.8h-2l-.5-.4a4.2,4.2,0,0,0-3.8.1,2.7,2.7,0,0,0-.7.8l-1.3.2c-.5.1-.5.3-.5.7s.1,1.8.1,2.4a1.4,1.4,0,0,0-.7.6c-.1.3,0,.3,0,.2l-.3.2a3.3,3.3,0,0,0-1.1,1c-.1.1-.2.2-.2.3s-.1.1-.2.2h-.1a.4.4,0,0,0-.1.3c-.1.2-.2.3-.2.4s-.3.4-.4.7-.5.7-.7,1-.2.4-.4.9a2.1,2.1,0,0,0-.2,1.4V88a11.5,11.5,0,0,0,4.3,3.6h-.1v-.3h0a5,5,0,0,0-.2-1.7,2.6,2.6,0,0,1-.4-1c0-.3-.2-.8-.2-1.3a1,1,0,0,1,.2-.7c.1-.2.4-.2.7-.3v-.2h.1c0,.1,0,.2.1.2h0c0,.1.1.2.1.4h.1v.2a.3.3,0,0,1,.1.2h.1a1.6,1.6,0,0,0,.3.6V89c.1.1.1.1.1.2a1,1,0,0,1-.1.4,1.2,1.2,0,0,0-.2.7c0,.1-.1.1-.1.2v.7a.8.8,0,0,0-.1.4c0,.1-.1.2-.1.3a12.2,12.2,0,0,0,4.3.9h0l.2-.4h.3a.3.3,0,0,1,.1.2h0a12.3,12.3,0,0,0,4.3-1,3.1,3.1,0,0,0-.2-.8h0l-.3-.8h0v-.3h0v-.3h0a6.4,6.4,0,0,0-.2-.9h0v-.3c-.1,0,0,0,0-.1h0l.2-.6h0a.4.4,0,0,1,.1-.3c.2-.5.3-.3.4-.6h.1l.7.4c.1.3.6.1.7.1l1,.2c.3.3.5.3.5.3a2.2,2.2,0,0,0,1.3-.2,1.5,1.5,0,0,0,1.1-.7.9.9,0,0,1,.3-.5.4.4,0,0,0,.1-.3h.5c.1,0,.1,0,.1-.1a10.1,10.1,0,0,0,.3-2.5Z"/><circle class="cls-148" cx="846.1" cy="132.3" r="8.2"/><circle class="cls-149" cx="846.1" cy="132" r="6.4"/><circle class="cls-150" cx="846.1" cy="152.5" r="8.2"/><circle class="cls-151" cx="846.1" cy="152.2" r="6.4"/><polygon class="cls-152" points="849.6 173.7 846 173.7 846 173.7 842.5 173.7 836.3 181.8 836.3 193.8 838.4 195 846 195 846 195 853.7 195 855.8 193.8 855.8 181.8 849.6 173.7"/><polygon class="cls-153" points="849.6 173.7 846 173.7 846 173.7 842.5 173.7 836.3 181.8 836.3 193.8 838.4 195 846 195 846 195 853.7 195 855.8 193.8 855.8 181.8 849.6 173.7"/><polygon class="cls-154" points="849.3 174.1 846 174.1 846 174.1 842.8 174.1 837 182 837 193.9 839 195 846 195 846 195 853.1 195 855.1 193.9 855.1 182 849.3 174.1"/><path class="cls-155" d="M846.1,58.3c-13.2-.6-14.9-3.7-15.1-4.1l.6-1.7s2.3,3.7,14.5,4.3,14.5-4.2,14.5-4.2l.5,1.6C860.9,54.6,859.2,57.7,846.1,58.3Z"/><circle class="cls-156" cx="846.1" cy="131.6" r="5.1"/><circle class="cls-157" cx="846.1" cy="151.8" r="5.1"/></g></g></g></svg>